<?xml version="1.0" encoding="iso-8859-1"?>
<!-- Generator: Adobe Illustrator 19.0.0, SVG Export Plug-In . SVG Version: 6.00 Build 0)  -->
<svg xmlns="http://www.w3.org/2000/svg" xmlns:xlink="http://www.w3.org/1999/xlink" version="1.1" id="Capa_1" x="0px" y="0px" viewBox="0 0 512 512" style="enable-background:new 0 0 512 512;" xml:space="preserve" width="512px" height="512px">
<g>
	<g>
		<path d="M128,93.867c-23.526,0-42.667,19.14-42.667,42.667v238.933c0,23.526,19.14,42.667,42.667,42.667    c23.526,0,42.667-19.14,42.667-42.667V136.533C170.667,113.007,151.526,93.867,128,93.867z M153.6,375.467    c0,14.114-11.486,25.6-25.6,25.6s-25.6-11.486-25.6-25.6V136.533c0-14.114,11.486-25.6,25.6-25.6s25.6,11.486,25.6,25.6V375.467z" fill="#676a79"/>
	</g>
</g>
<g>
	<g>
		<path d="M68.267,162.133c-18.825,0-34.133,15.309-34.133,34.133v119.467c0,18.825,15.309,34.133,34.133,34.133    s34.133-15.309,34.133-34.133V196.267C102.4,177.442,87.091,162.133,68.267,162.133z M85.333,315.733    c0,9.412-7.654,17.067-17.067,17.067c-9.412,0-17.067-7.654-17.067-17.067V196.267c0-9.412,7.654-17.067,17.067-17.067    c9.412,0,17.067,7.654,17.067,17.067V315.733z" fill="#676a79"/>
	</g>
</g>
<g>
	<g>
		<path d="M42.667,213.333H8.533c-4.71,0-8.533,3.823-8.533,8.533v68.267c0,4.71,3.823,8.533,8.533,8.533h34.133    c4.71,0,8.533-3.823,8.533-8.533v-68.267C51.2,217.156,47.377,213.333,42.667,213.333z M34.133,281.6H17.067v-51.2h17.067V281.6z" fill="#676a79"/>
	</g>
</g>
<g>
	<g>
		<path d="M349.867,213.333H162.133c-4.71,0-8.533,3.823-8.533,8.533v68.267c0,4.71,3.823,8.533,8.533,8.533h187.733    c4.71,0,8.533-3.823,8.533-8.533v-68.267C358.4,217.156,354.577,213.333,349.867,213.333z M341.333,281.6H170.667v-51.2h170.667    V281.6z" fill="#676a79"/>
	</g>
</g>
<g>
	<g>
		<path d="M384,93.867c-23.526,0-42.667,19.14-42.667,42.667v238.933c0,23.526,19.14,42.667,42.667,42.667    c23.526,0,42.667-19.14,42.667-42.667V136.533C426.667,113.007,407.526,93.867,384,93.867z M409.6,375.467    c0,14.114-11.486,25.6-25.6,25.6s-25.6-11.486-25.6-25.6V136.533c0-14.114,11.486-25.6,25.6-25.6s25.6,11.486,25.6,25.6V375.467z" fill="#676a79"/>
	</g>
</g>
<g>
	<g>
		<path d="M443.733,162.133c-18.825,0-34.133,15.309-34.133,34.133v119.467c0,18.825,15.309,34.133,34.133,34.133    c18.825,0,34.133-15.309,34.133-34.133V196.267C477.867,177.442,462.558,162.133,443.733,162.133z M460.8,315.733    c0,9.412-7.654,17.067-17.067,17.067c-9.412,0-17.067-7.654-17.067-17.067V196.267c0-9.412,7.654-17.067,17.067-17.067    c9.412,0,17.067,7.654,17.067,17.067V315.733z" fill="#676a79"/>
	</g>
</g>
<g>
	<g>
		<path d="M503.467,213.333h-34.133c-4.71,0-8.533,3.823-8.533,8.533v68.267c0,4.71,3.823,8.533,8.533,8.533h34.133    c4.71,0,8.533-3.823,8.533-8.533v-68.267C512,217.156,508.177,213.333,503.467,213.333z M494.933,281.6h-17.067v-51.2h17.067    V281.6z" fill="#676a79"/>
	</g>
</g>
<g>
	<g>
		<path d="M290.133,247.467h-128c-4.71,0-8.533,3.823-8.533,8.533c0,4.71,3.823,8.533,8.533,8.533h128    c4.71,0,8.533-3.823,8.533-8.533C298.667,251.29,294.844,247.467,290.133,247.467z" fill="#676a79"/>
	</g>
</g>
<g>
	<g>
		<path d="M349.867,247.467h-25.6c-4.71,0-8.533,3.823-8.533,8.533c0,4.71,3.823,8.533,8.533,8.533h25.6    c4.71,0,8.533-3.823,8.533-8.533C358.4,251.29,354.577,247.467,349.867,247.467z" fill="#676a79"/>
	</g>
</g>
<g>
	<g>
		<path d="M128,179.2c-4.71,0-8.533,3.823-8.533,8.533V256c0,4.71,3.823,8.533,8.533,8.533s8.533-3.823,8.533-8.533v-68.267    C136.533,183.023,132.71,179.2,128,179.2z" fill="#676a79"/>
	</g>
</g>
<g>
	<g>
		<path d="M128,128c-4.71,0-8.533,3.823-8.533,8.533V153.6c0,4.71,3.823,8.533,8.533,8.533s8.533-3.823,8.533-8.533v-17.067    C136.533,131.823,132.71,128,128,128z" fill="#676a79"/>
	</g>
</g>
<g>
	<g>
		<path d="M384,247.467c-4.71,0-8.533,3.823-8.533,8.533v68.267c0,4.71,3.823,8.533,8.533,8.533s8.533-3.823,8.533-8.533V256    C392.533,251.29,388.71,247.467,384,247.467z" fill="#676a79"/>
	</g>
</g>
<g>
	<g>
		<path d="M384,349.867c-4.71,0-8.533,3.823-8.533,8.533v17.067c0,4.71,3.823,8.533,8.533,8.533s8.533-3.823,8.533-8.533V358.4    C392.533,353.69,388.71,349.867,384,349.867z" fill="#676a79"/>
	</g>
</g>
<g>
	<g>
		<path d="M503.467,401.067h-34.133c-4.71,0-8.533,3.823-8.533,8.533c0,4.71,3.823,8.533,8.533,8.533h34.133    c4.71,0,8.533-3.823,8.533-8.533C512,404.89,508.177,401.067,503.467,401.067z" fill="#676a79"/>
	</g>
</g>
<g>
	<g>
		<path d="M204.8,401.067H8.533C3.823,401.067,0,404.89,0,409.6c0,4.71,3.823,8.533,8.533,8.533H204.8    c4.71,0,8.533-3.823,8.533-8.533C213.333,404.89,209.51,401.067,204.8,401.067z" fill="#676a79"/>
	</g>
</g>
<g>
	<g>
		<path d="M273.067,401.067h-34.133c-4.71,0-8.533,3.823-8.533,8.533c0,4.71,3.823,8.533,8.533,8.533h34.133    c4.71,0,8.533-3.823,8.533-8.533C281.6,404.89,277.777,401.067,273.067,401.067z" fill="#676a79"/>
	</g>
</g>
<g>
	<g>
		<path d="M435.2,401.067h-128c-4.71,0-8.533,3.823-8.533,8.533c0,4.71,3.823,8.533,8.533,8.533h128c4.71,0,8.533-3.823,8.533-8.533    C443.733,404.89,439.91,401.067,435.2,401.067z" fill="#676a79"/>
	</g>
</g>
<g>
</g>
<g>
</g>
<g>
</g>
<g>
</g>
<g>
</g>
<g>
</g>
<g>
</g>
<g>
</g>
<g>
</g>
<g>
</g>
<g>
</g>
<g>
</g>
<g>
</g>
<g>
</g>
<g>
</g>
</svg>
