<?xml version="1.0" encoding="iso-8859-1"?>
<!-- Generator: Adobe Illustrator 19.0.0, SVG Export Plug-In . SVG Version: 6.00 Build 0)  -->
<svg xmlns="http://www.w3.org/2000/svg" xmlns:xlink="http://www.w3.org/1999/xlink" version="1.1" id="Capa_1" x="0px" y="0px" viewBox="0 0 512 512" style="enable-background:new 0 0 512 512;" xml:space="preserve" width="512px" height="512px">
<g>
	<g>
		<path d="M256,0C114.842,0,0,114.842,0,256s114.842,256,256,256s256-114.842,256-256S397.158,0,256,0z M256,494.933    C124.254,494.933,17.067,387.746,17.067,256S124.254,17.067,256,17.067S494.933,124.254,494.933,256S387.746,494.933,256,494.933z    " fill="#676a79"/>
	</g>
</g>
<g>
	<g>
		<path d="M319.488,11.213c-1.126-2.33-3.243-4.028-5.768-4.608c-38.059-8.772-77.38-8.772-115.439,0    c-2.526,0.58-4.642,2.278-5.769,4.608c-1.126,2.33-1.126,5.043-0.017,7.381C213.769,63.232,235.128,85.862,256,85.862    c20.873,0,42.232-22.63,63.505-67.268C320.623,16.256,320.614,13.542,319.488,11.213z M256,68.796    c-11.733,0-27.588-17.647-43.238-47.761c28.672-5.274,57.805-5.274,86.477,0C283.588,51.14,267.733,68.796,256,68.796z" fill="#676a79"/>
	</g>
</g>
<g>
	<g>
		<path d="M134.05,210.816c3.319-3.337,3.311-8.721-0.017-12.049c-3.328-3.337-8.738-3.337-12.066,0    c-13.517,13.508-30.797,46.677-2.5,77.713v22.187c0,4.71,3.823,8.533,8.533,8.533s8.533-3.823,8.533-8.533v-25.6    c0-2.261-0.896-4.437-2.5-6.033C106.957,239.957,131.157,213.76,134.05,210.816z" fill="#676a79"/>
	</g>
</g>
<g>
	<g>
		<path d="M390.033,198.767c-3.328-3.328-8.695-3.32-12.032-0.009c-3.337,3.311-3.354,8.704-0.06,12.058    c2.859,2.893,27.119,29.124,0.026,56.218c-1.604,1.596-2.5,3.772-2.5,6.033v25.6c0,4.71,3.823,8.533,8.533,8.533    s8.533-3.823,8.533-8.533V276.48C420.83,245.444,403.541,212.275,390.033,198.767z" fill="#676a79"/>
	</g>
</g>
<g>
	<g>
		<path d="M246.135,239.556c-4.361-1.784-9.344,0.324-11.11,4.702c-12.058,29.764-48.247,36.898-104.653,20.608    c-4.523-1.289-9.259,1.306-10.564,5.837c-1.314,4.523,1.297,9.259,5.828,10.564c22.238,6.417,40.661,9.062,55.927,9.062    c45.022,0,62.524-22.989,69.274-39.663C252.612,246.306,250.505,241.331,246.135,239.556z" fill="#676a79"/>
	</g>
</g>
<g>
	<g>
		<path d="M392.252,270.703c-1.314-4.531-6.042-7.134-10.564-5.837c-56.422,16.307-92.612,9.156-104.661-20.625    c-1.766-4.369-6.75-6.451-11.11-4.71c-4.369,1.766-6.477,6.741-4.71,11.11c6.75,16.683,24.235,39.689,69.282,39.689    c15.258,0,33.69-2.645,55.936-9.062C390.946,279.962,393.557,275.234,392.252,270.703z" fill="#676a79"/>
	</g>
</g>
<g>
	<g>
		<path d="M238.507,111.846c-12.348-6.178-26.957-9.446-42.24-9.446c-4.71,0-8.533,3.823-8.533,8.533s3.823,8.533,8.533,8.533    c15.983,0,27.639,4.156,34.603,7.637c1.229,0.614,2.534,0.905,3.814,0.905c3.132,0,6.144-1.724,7.637-4.71    C244.429,119.083,242.722,113.954,238.507,111.846z" fill="#676a79"/>
	</g>
</g>
<g>
	<g>
		<path d="M219.366,79.3l-8.533-8.533c-3.328-3.336-8.738-3.336-12.066,0c-3.337,3.337-3.337,8.73,0,12.066l8.533,8.533    c1.664,1.664,3.849,2.5,6.033,2.5c2.185,0,4.369-0.836,6.033-2.5C222.703,88.03,222.703,82.637,219.366,79.3z" fill="#676a79"/>
	</g>
</g>
<g>
	<g>
		<path d="M469.76,264.516c6.801-23.245,1.536-45.56-0.299-52.036c2.517-28.501-3.721-51.251-18.56-67.652    c-20.241-22.366-49.673-25.011-56.806-25.318c-21.521-7.757-67.174-39.287-79.053-47.625l-6.135-36.796    c-0.589-3.55-3.337-6.34-6.878-6.989c-3.533-0.649-7.1,0.99-8.909,4.096c-18.56,31.855-31.215,36.608-37.111,36.608    s-18.56-4.762-37.111-36.608c-1.809-3.106-5.367-4.745-8.909-4.096c-3.533,0.649-6.289,3.439-6.878,6.989l-6.135,36.796    c-11.878,8.337-57.515,39.868-79.053,47.625c-7.134,0.307-36.565,2.953-56.806,25.318c-14.839,16.401-21.086,39.159-18.56,67.652    c-1.835,6.485-7.1,28.791-0.299,52.036c-3.337,10.726-15.241,51.772-17.843,98.295c-0.077,1.442,0.213,2.884,0.836,4.181    c17.877,37.103,44.851,69.76,78.003,94.456c2.722,2.022,6.391,2.227,9.344,0.555c2.944-1.69,4.608-4.966,4.232-8.346    l-5.666-50.978c2.705-5.564,9.028-20.147,15.249-45.935c0.649,1.57,1.348,3.132,2.099,4.685    c1.715,6.536,14.276,57.89,0.887,109.824c-0.981,3.78,0.742,7.748,4.173,9.617C170.906,501.24,213.24,512,256,512    c42.761,0,85.094-10.76,122.453-31.121c3.43-1.869,5.154-5.837,4.173-9.617c-13.346-51.78-0.819-103.279,0.887-109.833    c0.751-1.553,1.451-3.115,2.091-4.685c6.221,25.788,12.544,40.371,15.249,45.935l-5.666,50.978    c-0.375,3.371,1.288,6.656,4.232,8.346c2.944,1.681,6.613,1.459,9.344-0.555c33.152-24.695,60.134-57.353,78.003-94.455    c0.631-1.306,0.913-2.739,0.836-4.181C485.001,316.288,473.097,275.243,469.76,264.516z M414.43,434.825l3.644-32.819    c0.196-1.766-0.179-3.576-1.041-5.129c-0.162-0.29-16.026-29.355-24.567-99.251c-0.555-4.574-4.625-7.842-9.225-7.467    c-4.582,0.41-8.021,4.378-7.765,8.977c0.751,13.508,2.005,36.13-7.646,55.441c-0.23,0.478-0.427,0.973-0.572,1.485    c-0.657,2.321-15.428,55.552-2.756,112.862c-33.399,17.033-70.767,26.01-108.501,26.01c-37.734,0-75.102-8.977-108.501-26.01    c12.681-57.31-2.099-110.532-2.756-112.853c-0.145-0.512-0.333-1.007-0.572-1.485c-9.651-19.311-8.397-41.933-7.646-55.441    c0.256-4.599-3.183-8.567-7.765-8.977c-4.608-0.375-8.67,2.893-9.225,7.467c-8.542,69.897-24.405,98.961-24.55,99.217    c-0.888,1.562-1.254,3.371-1.058,5.154l3.644,32.819c-23.177-20.565-42.308-45.56-55.987-73.276    c3.132-49.826,17.57-93.884,17.715-94.327c0.58-1.749,0.58-3.635,0-5.385c-7.484-22.451-0.068-45.594,0-45.798    c0.375-1.143,0.512-2.347,0.393-3.55c-2.423-24.226,2.278-43.102,13.969-56.098c17.51-19.465,45.551-19.857,45.807-19.857    c0.913,0,1.826-0.145,2.705-0.435c26.513-8.841,85.111-50.577,87.595-52.352c1.843-1.314,3.089-3.311,3.456-5.538l3.132-18.799    c26.709,35.533,52.591,35.533,79.3,0l3.132,18.799c0.367,2.227,1.613,4.224,3.456,5.538c2.483,1.775,61.082,43.511,87.595,52.352    c0.87,0.29,1.784,0.435,2.697,0.435c0.282,0,28.041,0.222,45.705,19.746c11.767,13.005,16.503,31.915,14.071,56.209    c-0.12,1.203,0.017,2.406,0.393,3.55c0.077,0.23,7.552,23.159,0,45.798c-0.58,1.749-0.58,3.635,0,5.385    c0.145,0.444,14.575,44.399,17.715,94.327C456.738,389.257,437.607,414.259,414.43,434.825z" fill="#676a79"/>
	</g>
</g>
<g>
	<g>
		<path d="M273.067,435.2c-4.71,0-8.533,3.823-8.533,8.533c0,4.702-3.823,8.533-8.533,8.533s-8.533-3.831-8.533-8.533    c0-4.71-3.823-8.533-8.533-8.533s-8.533,3.823-8.533,8.533c0,14.114,11.486,25.6,25.6,25.6s25.6-11.486,25.6-25.6    C281.6,439.023,277.777,435.2,273.067,435.2z" fill="#676a79"/>
	</g>
</g>
<g>
	<g>
		<path d="M238.507,335.386c-1.468-4.48-6.272-6.946-10.761-5.47c-10.906,3.55-25.233,4.241-37.385,1.783    c-6.827-1.374-14.737-6.178-22.272-13.534c-3.371-3.277-8.772-3.226-12.066,0.154c-3.294,3.371-3.226,8.772,0.145,12.066    c6.98,6.81,17.988,15.462,30.822,18.048c5.982,1.203,12.279,1.792,18.577,1.792c9.6,0,19.174-1.391,27.469-4.088    C237.517,344.678,239.966,339.866,238.507,335.386z" fill="#676a79"/>
	</g>
</g>
<g>
	<g>
		<path d="M328.38,373.862c-3.157-3.516-8.55-3.789-12.049-0.631c-5.973,5.385-12.894,11.11-19.524,11.11c-0.043,0-0.094,0-0.137,0    c-2.594-0.034-6.827-1.681-10.914-3.277c-3.422-1.331-6.955-2.705-10.598-3.627c-4.582-1.143-9.207,1.621-10.359,6.195    c-1.152,4.565,1.621,9.207,6.187,10.359c2.611,0.657,5.504,1.783,8.567,2.978c5.513,2.15,11.213,4.378,16.913,4.446    c0.111,0,0.222,0,0.333,0c13.739,0,24.917-10.061,30.95-15.505C331.247,382.754,331.537,377.361,328.38,373.862z" fill="#676a79"/>
	</g>
</g>
<g>
	<g>
		<path d="M355.977,318.319c-3.285-3.379-8.687-3.43-12.066-0.154c-7.535,7.356-15.445,12.16-22.281,13.534    c-12.151,2.458-26.479,1.766-37.385-1.783c-4.489-1.468-9.301,0.981-10.761,5.47c-1.459,4.48,0.99,9.293,5.47,10.752    c8.303,2.705,17.877,4.087,27.477,4.087c6.289,0,12.595-0.597,18.577-1.792c12.834-2.586,23.842-11.238,30.822-18.048    C359.202,327.091,359.262,321.69,355.977,318.319z" fill="#676a79"/>
	</g>
</g>
<g>
	<g>
		<path d="M177.493,404.48c-2.825-3.772-8.175-4.531-11.947-1.707c-3.772,2.825-4.531,8.175-1.707,11.947    c6.647,8.858,23.893,35.942,23.893,54.613c0,4.71,3.823,8.533,8.533,8.533s8.533-3.823,8.533-8.533    C204.8,441.216,178.611,405.965,177.493,404.48z" fill="#676a79"/>
	</g>
</g>
<g>
	<g>
		<path d="M346.445,402.773c-3.763-2.825-9.105-2.057-11.938,1.707c-1.118,1.485-27.307,36.736-27.307,64.853    c0,4.71,3.823,8.533,8.533,8.533s8.533-3.823,8.533-8.533c0-18.603,17.246-45.73,23.893-54.613    C350.985,410.948,350.217,405.598,346.445,402.773z" fill="#676a79"/>
	</g>
</g>
<g>
	<g>
		<path d="M170.667,238.933c-5.769,0-8.021-1.152-8.687-1.604c-0.742-3.942-4.215-6.929-8.38-6.929c-4.71,0-8.533,3.823-8.533,8.533    c0,0.7,0.29,17.067,25.6,17.067c4.71,0,8.533-3.823,8.533-8.533S175.377,238.933,170.667,238.933z" fill="#676a79"/>
	</g>
</g>
<g>
	<g>
		<path d="M358.4,230.4c-4.164,0-7.637,2.987-8.38,6.929c-0.666,0.452-2.918,1.604-8.687,1.604c-4.71,0-8.533,3.823-8.533,8.533    s3.823,8.533,8.533,8.533c25.31,0,25.6-16.367,25.6-17.067C366.933,234.223,363.11,230.4,358.4,230.4z" fill="#676a79"/>
	</g>
</g>
<g>
	<g>
		<path d="M401.007,127.019c-0.529-4.685-4.779-8.073-9.446-7.509c-1.109,0.128-27.383,3.362-33.169,23.151    c-1.323,4.523,1.271,9.267,5.794,10.59c0.794,0.239,1.604,0.35,2.398,0.35c3.686,0,7.091-2.415,8.175-6.144    c2.159-7.364,14.575-10.479,18.765-10.991C398.2,135.91,401.545,131.695,401.007,127.019z" fill="#676a79"/>
	</g>
</g>
<g>
	<g>
		<path d="M121.788,119.791c-4.531-1.254-9.25,1.348-10.53,5.888c-1.289,4.531,1.357,9.25,5.888,10.53    c9.318,2.637,10.394,8.132,10.513,9.31c0.239,4.531,3.985,8.081,8.516,8.081c0.077,0,0.162,0,0.247,0    c4.71-0.137,8.422-4.062,8.286-8.772C144.512,137.882,139.46,124.783,121.788,119.791z" fill="#676a79"/>
	</g>
</g>
<g>
	<g>
		<path d="M77.158,187.733c-16.111,0-31.002,18.227-32.657,20.301c-2.918,3.695-2.295,9.062,1.399,11.989    c1.57,1.246,3.439,1.843,5.291,1.843c2.517,0,5.018-1.109,6.699-3.234c4.42-5.581,13.594-13.833,19.268-13.833    c4.71,0,8.533-3.823,8.533-8.533S81.869,187.733,77.158,187.733z" fill="#676a79"/>
	</g>
</g>
<g>
	<g>
		<path d="M467.49,208.034c-1.647-2.074-16.538-20.301-32.649-20.301c-4.71,0-8.533,3.823-8.533,8.533s3.823,8.533,8.533,8.533    c5.623,0,14.831,8.26,19.277,13.841c1.681,2.116,4.173,3.217,6.682,3.217c1.869,0,3.738-0.606,5.299-1.852    C469.786,217.079,470.409,211.729,467.49,208.034z" fill="#676a79"/>
	</g>
</g>
<g>
	<g>
		<path d="M315.733,102.4c-15.275,0-29.875,3.26-42.223,9.429c-4.215,2.108-5.922,7.236-3.814,11.452    c1.493,2.995,4.506,4.719,7.637,4.719c1.289,0,2.586-0.29,3.814-0.896c6.963-3.49,18.62-7.637,34.586-7.637    c4.71,0,8.533-3.823,8.533-8.533S320.444,102.4,315.733,102.4z" fill="#676a79"/>
	</g>
</g>
<g>
	<g>
		<path d="M313.233,70.767c-3.328-3.336-8.738-3.336-12.066,0l-8.533,8.533c-3.337,3.336-3.337,8.73,0,12.066    c1.664,1.664,3.849,2.5,6.033,2.5c2.185,0,4.369-0.836,6.033-2.5l8.533-8.533C316.57,79.497,316.57,74.103,313.233,70.767z" fill="#676a79"/>
	</g>
</g>
<g>
	<g>
		<path d="M244.975,383.642c-1.152-4.574-5.786-7.347-10.359-6.195c-3.644,0.922-7.177,2.296-10.598,3.627    c-4.087,1.596-8.32,3.251-10.914,3.277c-6.972-0.188-13.645-5.7-19.661-11.11c-3.499-3.14-8.892-2.867-12.049,0.631    c-3.149,3.507-2.867,8.9,0.631,12.058c6.033,5.427,17.203,15.488,30.95,15.488c0.102,0,0.213,0,0.333,0.009    c5.7-0.068,11.401-2.295,16.913-4.446c3.063-1.195,5.956-2.321,8.567-2.978C243.354,392.849,246.127,388.207,244.975,383.642z" fill="#676a79"/>
	</g>
</g>
<g>
</g>
<g>
</g>
<g>
</g>
<g>
</g>
<g>
</g>
<g>
</g>
<g>
</g>
<g>
</g>
<g>
</g>
<g>
</g>
<g>
</g>
<g>
</g>
<g>
</g>
<g>
</g>
<g>
</g>
</svg>
