<?xml version="1.0" encoding="iso-8859-1"?>
<!-- Generator: Adobe Illustrator 19.0.0, SVG Export Plug-In . SVG Version: 6.00 Build 0)  -->
<svg xmlns="http://www.w3.org/2000/svg" xmlns:xlink="http://www.w3.org/1999/xlink" version="1.1" id="Capa_1" x="0px" y="0px" viewBox="0 0 512 512" style="enable-background:new 0 0 512 512;" xml:space="preserve" width="512px" height="512px">
<g>
	<g>
		<path d="M360.159,337.383c-2.519-1.652-3.956-4.228-3.956-7.061s1.437-5.409,3.956-7.061c9.637-6.342,13.667-17.408,10.281-28.218    c-3.452-10.983-13.609-17.903-25.501-17.846c-3.353,0.231-6.276-1.33-8.118-3.898c-0.941-1.33-2.337-4.071-1.041-7.581    c3.89-10.471,0.562-21.644-8.481-28.449c-9.406-7.085-22.099-7.16-31.562-0.165c-2.601,1.924-5.888,2.453-9.026,1.396    c-2.899-0.958-5.037-3.072-5.88-5.814c-3.361-10.925-13.106-17.978-24.832-17.978s-21.479,7.061-24.832,17.986    c-0.834,2.733-2.981,4.856-5.88,5.805c-3.138,1.041-6.425,0.512-9.026-1.396c-9.464-6.986-22.148-6.92-31.562,0.165    c-9.034,6.805-12.371,17.97-8.481,28.449c1.305,3.51-0.091,6.251-1.041,7.581c-1.792,2.494-4.625,3.906-7.829,3.906    c-0.339-0.008-0.685-0.025-1.032-0.017c-11.487,0-21.38,7.102-24.758,17.854c-3.386,10.81,0.644,21.876,10.281,28.218    c2.519,1.652,3.956,4.228,3.956,7.061s-1.437,5.409-3.956,7.061c-9.637,6.342-13.667,17.408-10.281,28.218    c3.378,10.752,13.271,17.854,24.758,17.854c0.24,0,0.495-0.008,0.743-0.008c3.303-0.339,6.276,1.321,8.118,3.898    c0.941,1.33,2.337,4.071,1.041,7.581c-3.89,10.471-0.562,21.644,8.481,28.449c9.414,7.094,22.099,7.168,31.562,0.165    c2.601-1.916,5.888-2.428,9.026-1.396c2.899,0.958,5.037,3.072,5.88,5.814c3.361,10.925,13.106,17.978,24.832,17.978    s21.479-7.061,24.832-17.986c0.834-2.733,2.981-4.856,5.88-5.805c3.13-1.057,6.425-0.529,9.026,1.396    c9.464,6.986,22.148,6.92,31.562-0.165c9.034-6.805,12.371-17.97,8.481-28.449c-1.305-3.51,0.091-6.251,1.041-7.581    c1.842-2.576,4.625-4.22,8.118-3.898c11.867,0.025,22.049-6.862,25.501-17.846C373.826,354.791,369.796,343.725,360.159,337.383z     M351.1,351.182c5.054,3.32,4.03,8.085,3.592,9.464c-0.983,3.13-4.022,6.656-9.299,6.284c-8.836-0.025-16.987,3.807-21.991,10.81    c-4.79,6.681-5.946,15.253-3.097,22.924c1.908,5.153-1.412,8.365-2.932,9.505c-2.717,2.056-7.457,3.303-11.826,0.074    c-6.862-5.062-15.839-6.466-24.006-3.79c-8.06,2.659-14.072,8.729-16.508,16.648c-1.429,4.658-5.599,6.317-9.034,6.317    s-7.606-1.66-9.034-6.317c-2.436-7.919-8.456-13.989-16.508-16.64c-2.725-0.9-5.541-1.338-8.341-1.338    c-5.582,0-11.091,1.759-15.674,5.137c-4.369,3.221-9.1,1.99-11.826-0.074c-1.519-1.131-4.839-4.352-2.932-9.505    c2.849-7.664,1.693-16.235-3.097-22.924c-5.013-7.003-13.304-10.81-21.991-10.81c-5.401,0.405-8.316-3.155-9.299-6.284    c-0.438-1.379-1.462-6.152,3.584-9.464c7.143-4.691,11.404-12.494,11.404-20.868s-4.261-16.178-11.396-20.868    c-5.054-3.32-4.03-8.085-3.592-9.464c0.983-3.13,4.079-6.689,9.299-6.284c8.82-0.041,16.987-3.807,21.991-10.81    c4.79-6.681,5.946-15.253,3.097-22.924c-1.908-5.153,1.412-8.365,2.932-9.505c2.717-2.056,7.449-3.303,11.826-0.074    c6.862,5.054,15.847,6.466,24.006,3.79c8.06-2.659,14.072-8.729,16.508-16.648c1.429-4.658,5.607-6.317,9.043-6.317    s7.614,1.66,9.034,6.301v0.008c2.436,7.919,8.456,13.989,16.508,16.64c8.167,2.7,17.135,1.272,24.006-3.79    c4.369-3.221,9.1-1.99,11.826,0.074c1.519,1.131,4.839,4.352,2.932,9.505c-2.849,7.664-1.693,16.235,3.097,22.924    c5.013,7.003,13.18,10.793,21.991,10.81c5.492-0.372,8.316,3.155,9.299,6.284c0.438,1.379,1.462,6.152-3.584,9.464    c-7.143,4.691-11.404,12.494-11.404,20.868C339.704,338.688,343.965,346.492,351.1,351.182z" fill="#1d1f2a"/>
	</g>
</g>
<g>
	<g>
		<path d="M245.339,419.386c-3.361-6.78-9.604-11.693-17.127-13.51c-7.573-1.833-15.517-0.24-21.76,4.368    c-4.418,3.279-9.422,2.056-12.42-0.595c-1.858-1.643-4.368-2.37-6.805-1.965c-2.444,0.405-4.583,1.875-5.822,4.022l-31.653,54.875    c-1.66,2.874-1.437,6.466,0.562,9.109c1.998,2.634,5.376,3.848,8.597,3.031l25.022-6.251l6.251,25.014    c0.826,3.295,3.584,5.756,6.953,6.194c0.355,0.041,0.702,0.066,1.057,0.066c2.989,0,5.781-1.619,7.242-4.278l39.746-72.431    C246.487,424.663,246.544,421.805,245.339,419.386z M201.092,473.03l-3.146-12.577c-0.941-3.757-4.302-6.26-8.002-6.26    c-0.669,0-1.338,0.083-2.007,0.239l-14.146,3.534l17.796-30.852c8.118,2.981,17.325,1.842,24.675-3.584    c3.155-2.337,6.408-2.031,8.076-1.602c1.42,0.339,2.717,0.974,3.79,1.833L201.092,473.03z" fill="#1d1f2a"/>
	</g>
</g>
<g>
	<g>
		<path d="M362.257,466.572l-31.653-54.875c-1.239-2.139-3.378-3.617-5.822-4.022c-2.453-0.405-4.947,0.322-6.805,1.965    c-2.989,2.651-8.002,3.865-12.42,0.595c-6.243-4.6-14.179-6.21-21.76-4.368c-7.523,1.817-13.766,6.739-17.127,13.51    c-1.206,2.42-1.148,5.277,0.157,7.647l39.746,72.432c1.462,2.667,4.253,4.286,7.234,4.286c0.347,0,0.702-0.025,1.065-0.074    c3.369-0.438,6.128-2.899,6.953-6.194l6.251-25.014l25.022,6.251c3.229,0.834,6.598-0.38,8.597-3.031    C363.693,473.03,363.916,469.446,362.257,466.572z M324.071,454.441c-4.41-1.09-8.91,1.577-10.017,6.012l-3.146,12.577    l-27.037-49.268c1.074-0.851,2.37-1.486,3.799-1.825c1.668-0.429,4.922-0.735,8.076,1.602c7.35,5.434,16.557,6.573,24.675,3.584    l17.796,30.852L324.071,454.441z" fill="#1d1f2a"/>
	</g>
</g>
<g>
	<g>
		<path d="M503.742,8.258H8.258C3.7,8.258,0,11.949,0,16.516v313.815c0,4.567,3.7,8.258,8.258,8.258h155.78    c4.558,0,8.258-3.691,8.258-8.258c0-8.374-4.261-16.186-11.396-20.868c-5.054-3.32-4.03-8.085-3.592-9.464    c0.983-3.13,4.079-6.689,9.299-6.284c8.886,0.008,16.987-3.807,21.991-10.802c4.781-6.681,5.946-15.253,3.097-22.933    c-1.908-5.153,1.412-8.365,2.932-9.505c2.717-2.056,7.449-3.303,11.826-0.074c6.862,5.054,15.839,6.466,24.006,3.79    c8.06-2.659,14.072-8.729,16.5-16.648c1.429-4.658,5.607-6.317,9.043-6.317s7.614,1.66,9.034,6.309    c2.436,7.919,8.456,13.997,16.508,16.648c8.167,2.676,17.144,1.263,24.006-3.79c4.369-3.221,9.1-1.99,11.826,0.074    c1.519,1.131,4.839,4.352,2.932,9.505c-2.849,7.664-1.693,16.235,3.097,22.933c5.013,6.995,13.18,10.785,21.991,10.802    c5.492-0.372,8.316,3.155,9.299,6.284c0.438,1.379,1.453,6.152-3.584,9.464c-7.143,4.682-11.404,12.486-11.404,20.868    c0,4.567,3.7,8.258,8.258,8.258h155.78c4.558,0,8.258-3.691,8.258-8.258V16.516C512,11.949,508.3,8.258,503.742,8.258z     M495.484,322.065H361.852c8.415-6.466,11.792-16.863,8.597-27.012c-3.452-10.991-13.609-17.912-25.501-17.854    c-3.353,0.231-6.276-1.33-8.118-3.898c-0.941-1.33-2.337-4.071-1.041-7.581c3.89-10.471,0.562-21.644-8.481-28.449    c-9.422-7.094-22.107-7.16-31.571-0.165c-2.601,1.924-5.888,2.453-9.018,1.396c-2.907-0.95-5.046-3.072-5.888-5.814    c-3.361-10.925-13.106-17.978-24.832-17.978s-21.479,7.052-24.849,17.986c-0.842,2.733-2.981,4.848-5.88,5.805    c-3.138,1.041-6.425,0.52-9.026-1.396c-9.464-6.986-22.148-6.92-31.562,0.165c-9.034,6.805-12.371,17.97-8.481,28.449    c1.297,3.51-0.099,6.26-1.049,7.581c-1.784,2.494-4.616,3.906-7.82,3.906c-0.339-0.008-0.685-0.025-1.032-0.017    c-11.487,0-21.38,7.102-24.758,17.854c-3.188,10.157,0.182,20.546,8.605,27.02H16.516V24.774h478.968V322.065z" fill="#1d1f2a"/>
	</g>
</g>
<g>
	<g>
		<path d="M460.197,242.729c-3.65-1.751-6.004-5.764-6.004-10.224V114.349c0-4.459,2.354-8.481,5.995-10.215    c13.593-6.507,20.918-20.918,18.234-35.865c-2.841-15.822-17.342-26.913-34.37-26.971c-27.186,0.33-44.412,7.366-54.082,13.229    c-3.534,2.139-7.54,3.278-11.586,3.278H133.615c-4.046,0-8.052-1.14-11.603-3.287c-9.662-5.855-26.888-12.899-54.066-13.221    c-0.149,0-0.297,0-0.446,0c-16.879,0-31.108,11.281-33.932,26.971c-2.676,14.947,4.649,29.357,18.234,35.857    c3.65,1.751,6.004,5.764,6.004,10.224v118.148c0,4.459-2.354,8.481-5.995,10.223c-13.585,6.507-20.918,20.918-18.234,35.865    c2.849,15.822,17.284,26.913,34.37,26.971c27.177-0.33,44.404-7.366,54.074-13.229c3.543-2.139,7.548-3.278,11.594-3.278h45.774    c2.056,0,4.038-0.768,5.558-2.147c7.597-6.92,10.248-17.482,6.747-26.921c-1.908-5.153,1.412-8.365,2.932-9.505    c2.717-2.056,7.449-3.303,11.826-0.074c6.862,5.054,15.839,6.466,24.006,3.79c8.06-2.659,14.072-8.729,16.5-16.648    c1.429-4.658,5.607-6.317,9.043-6.317s7.614,1.66,9.034,6.309c2.436,7.919,8.456,13.997,16.508,16.648    c8.167,2.676,17.144,1.263,24.006-3.79c4.368-3.221,9.1-1.99,11.826,0.074c1.519,1.131,4.839,4.352,2.932,9.497    c-3.51,9.447-0.859,20.009,6.747,26.93c1.52,1.379,3.501,2.147,5.558,2.147h45.774c4.038,0,8.052,1.131,11.594,3.287    c9.67,5.855,26.888,12.899,54.074,13.221c0.149,0,0.297,0,0.446,0c16.879,0,31.108-11.281,33.924-26.963    C481.107,263.639,473.782,249.228,460.197,242.729z M462.154,275.662c-1.387,7.721-9.199,13.188-17.912,13.37    c-24.692-0.297-39.234-6.912-45.7-10.826c-6.119-3.716-13.089-5.682-20.158-5.682h-41.959c-1.082-1.85-1.594-4.228-0.636-6.805    c3.89-10.471,0.562-21.644-8.481-28.449c-9.422-7.094-22.107-7.16-31.571-0.165c-2.601,1.924-5.888,2.453-9.018,1.396    c-2.907-0.95-5.046-3.072-5.888-5.814c-3.361-10.925-13.106-17.978-24.832-17.978s-21.479,7.052-24.84,17.986    c-0.842,2.733-2.981,4.847-5.88,5.805c-3.138,1.041-6.425,0.52-9.026-1.396c-9.464-6.986-22.148-6.92-31.562,0.165    c-9.034,6.805-12.371,17.97-8.481,28.449c0.958,2.568,0.446,4.955-0.636,6.805h-41.959c-7.069,0-14.039,1.974-20.158,5.682    c-6.474,3.923-21.017,10.546-45.708,10.835c-8.828-0.306-16.533-5.648-17.92-13.37c-1.561-8.704,3.452-15.335,9.117-18.052    c9.34-4.476,15.377-14.336,15.377-25.113V114.349c0-10.777-6.037-20.637-15.385-25.121c-5.657-2.709-10.669-9.34-9.109-18.044    c1.387-7.721,9.158-13.163,17.92-13.37c24.692,0.297,39.234,6.912,45.7,10.826c6.128,3.716,13.106,5.682,20.166,5.682h244.769    c7.069,0,14.047-1.965,20.166-5.673c6.474-3.923,21.017-10.546,45.708-10.835c8.638,0.091,16.524,5.64,17.912,13.37    c1.561,8.704-3.452,15.335-9.117,18.052c-9.34,4.476-15.376,14.336-15.376,25.113v118.148c0,10.777,6.037,20.637,15.36,25.113    c0.008,0,0.008,0.008,0.008,0.008C458.711,260.336,463.715,266.958,462.154,275.662z" fill="#1d1f2a"/>
	</g>
</g>
<g>
	<g>
		<path d="M256,264.258c-36.426,0-66.065,29.638-66.065,66.065s29.638,66.065,66.065,66.065s66.065-29.638,66.065-66.065    S292.426,264.258,256,264.258z M256,379.871c-27.326,0-49.548-22.222-49.548-49.548s22.222-49.548,49.548-49.548    s49.548,22.222,49.548,49.548S283.326,379.871,256,379.871z" fill="#1d1f2a"/>
	</g>
</g>
<g>
	<g>
		<path d="M253.58,341l-16.516-16.516c-3.229-3.229-8.448-3.229-11.677,0c-3.229,3.229-3.229,8.448,0,11.677l16.516,16.516    c1.61,1.61,3.724,2.42,5.839,2.42s4.228-0.809,5.838-2.42C256.809,349.448,256.809,344.229,253.58,341z" fill="#1d1f2a"/>
	</g>
</g>
<g>
	<g>
		<path d="M286.613,307.968c-3.229-3.229-8.448-3.229-11.677,0L241.903,341c-3.229,3.229-3.229,8.448,0,11.677    c1.61,1.61,3.724,2.42,5.839,2.42s4.228-0.809,5.838-2.42l33.032-33.032C289.842,316.416,289.842,311.197,286.613,307.968z" fill="#1d1f2a"/>
	</g>
</g>
<g>
	<g>
		<path d="M404.645,140.387H297.29c-4.558,0-8.258,3.691-8.258,8.258s3.7,8.258,8.258,8.258h107.355    c4.558,0,8.258-3.691,8.258-8.258S409.204,140.387,404.645,140.387z" fill="#1d1f2a"/>
	</g>
</g>
<g>
	<g>
		<path d="M330.323,99.097h-82.581c-4.558,0-8.258,3.691-8.258,8.258s3.7,8.258,8.258,8.258h82.581c4.558,0,8.258-3.691,8.258-8.258    S334.881,99.097,330.323,99.097z" fill="#1d1f2a"/>
	</g>
</g>
<g>
	<g>
		<path d="M404.645,99.097h-41.29c-4.558,0-8.258,3.691-8.258,8.258s3.7,8.258,8.258,8.258h41.29c4.558,0,8.258-3.691,8.258-8.258    S409.204,99.097,404.645,99.097z" fill="#1d1f2a"/>
	</g>
</g>
<g>
	<g>
		<path d="M264.258,140.387h-16.516c-4.558,0-8.258,3.691-8.258,8.258s3.7,8.258,8.258,8.258h16.516    c4.558,0,8.258-3.691,8.258-8.258S268.816,140.387,264.258,140.387z" fill="#1d1f2a"/>
	</g>
</g>
<g>
	<g>
		<path d="M264.258,140.387h-82.581c-4.558,0-8.258,3.691-8.258,8.258s3.7,8.258,8.258,8.258h82.581    c4.558,0,8.258-3.691,8.258-8.258S268.816,140.387,264.258,140.387z" fill="#1d1f2a"/>
	</g>
</g>
<g>
	<g>
		<path d="M214.71,99.097H107.355c-4.558,0-8.258,3.691-8.258,8.258s3.7,8.258,8.258,8.258H214.71c4.558,0,8.258-3.691,8.258-8.258    S219.268,99.097,214.71,99.097z" fill="#1d1f2a"/>
	</g>
</g>
<g>
	<g>
		<path d="M264.258,99.097h-16.516c-4.558,0-8.258,3.691-8.258,8.258s3.7,8.258,8.258,8.258h16.516c4.558,0,8.258-3.691,8.258-8.258    S268.816,99.097,264.258,99.097z" fill="#1d1f2a"/>
	</g>
</g>
<g>
	<g>
		<path d="M148.645,140.387h-41.29c-4.558,0-8.258,3.691-8.258,8.258s3.7,8.258,8.258,8.258h41.29c4.558,0,8.258-3.691,8.258-8.258    S153.204,140.387,148.645,140.387z" fill="#1d1f2a"/>
	</g>
</g>
<g>
	<g>
		<path d="M148.645,222.968h-41.29c-4.558,0-8.258,3.691-8.258,8.258s3.7,8.258,8.258,8.258h41.29c4.558,0,8.258-3.691,8.258-8.258    S153.204,222.968,148.645,222.968z" fill="#1d1f2a"/>
	</g>
</g>
<g>
	<g>
		<path d="M404.645,222.968h-41.29c-4.558,0-8.258,3.691-8.258,8.258s3.7,8.258,8.258,8.258h41.29c4.558,0,8.258-3.691,8.258-8.258    S409.204,222.968,404.645,222.968z" fill="#1d1f2a"/>
	</g>
</g>
<g>
	<g>
		<path d="M330.323,181.677h-82.581c-4.558,0-8.258,3.691-8.258,8.258s3.7,8.258,8.258,8.258h82.581    c4.558,0,8.258-3.691,8.258-8.258S334.881,181.677,330.323,181.677z" fill="#1d1f2a"/>
	</g>
</g>
<g>
	<g>
		<path d="M404.645,181.677h-41.29c-4.558,0-8.258,3.691-8.258,8.258s3.7,8.258,8.258,8.258h41.29c4.558,0,8.258-3.691,8.258-8.258    S409.204,181.677,404.645,181.677z" fill="#1d1f2a"/>
	</g>
</g>
<g>
	<g>
		<path d="M214.71,181.677H107.355c-4.558,0-8.258,3.691-8.258,8.258s3.7,8.258,8.258,8.258H214.71c4.558,0,8.258-3.691,8.258-8.258    S219.268,181.677,214.71,181.677z" fill="#1d1f2a"/>
	</g>
</g>
<g>
	<g>
		<path d="M264.258,181.677h-16.516c-4.558,0-8.258,3.691-8.258,8.258s3.7,8.258,8.258,8.258h16.516    c4.558,0,8.258-3.691,8.258-8.258S268.816,181.677,264.258,181.677z" fill="#1d1f2a"/>
	</g>
</g>
<g>
</g>
<g>
</g>
<g>
</g>
<g>
</g>
<g>
</g>
<g>
</g>
<g>
</g>
<g>
</g>
<g>
</g>
<g>
</g>
<g>
</g>
<g>
</g>
<g>
</g>
<g>
</g>
<g>
</g>
</svg>
