<?xml version="1.0" encoding="iso-8859-1"?>
<!-- Generator: Adobe Illustrator 19.0.0, SVG Export Plug-In . SVG Version: 6.00 Build 0)  -->
<svg xmlns="http://www.w3.org/2000/svg" xmlns:xlink="http://www.w3.org/1999/xlink" version="1.1" id="Capa_1" x="0px" y="0px" viewBox="0 0 512 512" style="enable-background:new 0 0 512 512;" xml:space="preserve" width="512px" height="512px">
<g>
	<g>
		<path d="M322.79,370.68c-1.587-2.338-4.224-3.746-7.057-3.746h-153.6c-2.833,0-5.478,1.4-7.066,3.746    c-1.587,2.347-1.911,5.325-0.862,7.953c0.171,0.41,16.461,42.027,16.461,99.234c0,18.825,15.309,34.133,34.133,34.133h68.267    c18.825,0,34.133-15.309,34.133-34.133c0-57.207,16.299-98.825,16.461-99.234C324.702,376.004,324.386,373.018,322.79,370.68z     M290.133,477.867c0,9.412-7.654,17.067-17.067,17.067H204.8c-9.412,0-17.067-7.654-17.067-17.067    c0-42.837-8.448-76.902-13.67-93.867h129.741C298.581,400.964,290.133,435.029,290.133,477.867z" fill="#1d1f2a"/>
	</g>
</g>
<g>
	<g>
		<path d="M323.661,133.367c-0.162-0.41-16.461-42.027-16.461-99.234C307.2,15.309,291.891,0,273.067,0H204.8    c-18.825,0-34.133,15.309-34.133,34.133c0,57.207-16.29,98.825-16.452,99.234c-1.05,2.628-0.725,5.615,0.862,7.953    c1.587,2.338,4.224,3.746,7.057,3.746h153.6c2.833,0,5.47-1.408,7.057-3.746C324.386,138.974,324.71,135.996,323.661,133.367z     M174.063,128c5.222-16.964,13.67-51.029,13.67-93.867c0-9.412,7.654-17.067,17.067-17.067h68.267    c9.412,0,17.067,7.654,17.067,17.067c0,42.837,8.448,76.902,13.67,93.867H174.063z" fill="#1d1f2a"/>
	</g>
</g>
<g>
	<g>
		<path d="M330.266,128H147.601c-15.514,0-28.134,12.621-28.134,28.134v199.731c0,15.514,12.621,28.134,28.134,28.134h182.665    c15.514,0,28.134-12.621,28.134-28.134V156.134C358.4,140.621,345.779,128,330.266,128z M341.333,355.866    c0,6.101-4.966,11.068-11.068,11.068H147.601c-6.101,0-11.068-4.966-11.068-11.068V156.134c0-6.101,4.966-11.068,11.068-11.068    h182.665c6.101,0,11.068,4.966,11.068,11.068V355.866z" fill="#1d1f2a"/>
	</g>
</g>
<g>
	<g>
		<path d="M375.484,170.667h-25.617c-4.71,0-8.533,3.823-8.533,8.533v51.2c0,4.71,3.823,8.533,8.533,8.533h25.617    c9.404,0,17.05-7.646,17.05-17.05v-34.167C392.533,178.313,384.887,170.667,375.484,170.667z M358.4,221.867v-34.133l17.067-0.017    l0.026,34.15H358.4z" fill="#1d1f2a"/>
	</g>
</g>
<g>
	<g>
		<path d="M375.484,273.067h-25.617c-4.71,0-8.533,3.823-8.533,8.533v51.2c0,4.71,3.823,8.533,8.533,8.533h25.617    c9.404,0,17.05-7.646,17.05-17.05v-34.167C392.533,280.713,384.887,273.067,375.484,273.067z M358.4,324.267v-34.133l17.067-0.017    l0.026,34.15H358.4z" fill="#1d1f2a"/>
	</g>
</g>
<g>
	<g>
		<path d="M315.733,247.467H303.94l-6.17-12.348c-1.331-2.645-3.925-4.42-6.869-4.685c-2.987-0.247-5.82,1.015-7.595,3.379    l-15.292,20.386l-12.348-43.213c-1.007-3.541-4.173-6.033-7.859-6.178c-3.541-0.154-7.04,2.082-8.337,5.53l-18.731,49.946    l-16.845-33.698c-1.357-2.722-4.062-4.514-7.1-4.702c-3.046-0.213-5.939,1.246-7.629,3.78l-14.532,21.803h-12.501    c-4.71,0-8.533,3.823-8.533,8.533s3.823,8.533,8.533,8.533H179.2c2.85,0,5.513-1.425,7.108-3.806l8.909-13.363l19.021,38.05    c1.451,2.901,4.412,4.719,7.629,4.719c0.145,0,0.299,0,0.452-0.009c3.388-0.179,6.349-2.338,7.543-5.521l16.512-44.041    l9.958,34.85c0.888,3.106,3.465,5.453,6.656,6.042c3.183,0.58,6.434-0.674,8.371-3.268l17.314-23.091l2.355,4.719    c1.451,2.893,4.403,4.719,7.637,4.719h17.067c4.71,0,8.533-3.823,8.533-8.533S320.444,247.467,315.733,247.467z" fill="#1d1f2a"/>
	</g>
</g>
<g>
	<g>
		<path d="M264.533,162.133h-102.4c-4.71,0-8.533,3.823-8.533,8.533s3.823,8.533,8.533,8.533h102.4c4.71,0,8.533-3.823,8.533-8.533    S269.244,162.133,264.533,162.133z" fill="#1d1f2a"/>
	</g>
</g>
<g>
	<g>
		<path d="M315.733,162.133h-17.067c-4.71,0-8.533,3.823-8.533,8.533s3.823,8.533,8.533,8.533h17.067    c4.71,0,8.533-3.823,8.533-8.533S320.444,162.133,315.733,162.133z" fill="#1d1f2a"/>
	</g>
</g>
<g>
	<g>
		<path d="M315.733,332.8h-102.4c-4.71,0-8.533,3.823-8.533,8.533s3.823,8.533,8.533,8.533h102.4c4.71,0,8.533-3.823,8.533-8.533    S320.444,332.8,315.733,332.8z" fill="#1d1f2a"/>
	</g>
</g>
<g>
	<g>
		<path d="M179.2,332.8h-17.067c-4.71,0-8.533,3.823-8.533,8.533s3.823,8.533,8.533,8.533H179.2c4.71,0,8.533-3.823,8.533-8.533    S183.91,332.8,179.2,332.8z" fill="#1d1f2a"/>
	</g>
</g>
<g>
</g>
<g>
</g>
<g>
</g>
<g>
</g>
<g>
</g>
<g>
</g>
<g>
</g>
<g>
</g>
<g>
</g>
<g>
</g>
<g>
</g>
<g>
</g>
<g>
</g>
<g>
</g>
<g>
</g>
</svg>
