<?xml version="1.0" encoding="iso-8859-1"?>
<!-- Generator: Adobe Illustrator 19.0.0, SVG Export Plug-In . SVG Version: 6.00 Build 0)  -->
<svg xmlns="http://www.w3.org/2000/svg" xmlns:xlink="http://www.w3.org/1999/xlink" version="1.1" id="Capa_1" x="0px" y="0px" viewBox="0 0 512.005 512.005" style="enable-background:new 0 0 512.005 512.005;" xml:space="preserve" width="512px" height="512px">
<g>
	<g>
		<path d="M223.54,386.42c-3.379-3.285-8.789-3.2-12.066,0.179c-3.285,3.379-3.2,8.789,0.179,12.066    c17.348,16.828,14.626,44.706,7.023,63.471c-7.945,19.618-22.093,32.802-35.209,32.802c-4.71,0-8.533,3.823-8.533,8.533    s3.823,8.533,8.533,8.533c20.617,0,40.166-16.657,51.029-43.452C244.097,444.873,246.981,409.153,223.54,386.42z" fill="#1d1f2a"/>
	</g>
</g>
<g>
	<g>
		<path d="M283.094,393.537c-4.796-18.441-15.471-34.697-31.138-47.206l-5.555-4.079c-24.585-16.794-56.055-22.153-86.349-14.711    c-27.989,6.869-52.07,24.26-66.057,47.71c-12.442,20.855-16.051,44.817-10.172,67.473c10.829,41.719,51.226,69.265,96.273,69.265    c8.815,0,17.792-1.05,26.761-3.26c27.998-6.878,52.07-24.269,66.065-47.718C285.364,440.154,288.973,416.193,283.094,393.537z     M258.27,452.263c-11.665,19.55-31.889,34.091-55.475,39.885c-45.901,11.307-91.836-12.826-102.451-53.717    c-4.727-18.202-1.775-37.538,8.311-54.434c11.665-19.558,31.881-34.091,55.475-39.885c7.629-1.877,15.326-2.79,22.929-2.79    c17.903,0,35.209,5.103,49.485,14.848l5.043,3.703c12.501,9.984,21.146,23.108,25.003,37.956    C271.309,416.031,268.357,435.367,258.27,452.263z" fill="#1d1f2a"/>
	</g>
</g>
<g>
	<g>
		<path d="M251.734,256.005h-17.067c-32.939,0-59.733,26.795-59.733,59.733v17.067c0,4.71,3.823,8.533,8.533,8.533h17.067    c32.939,0,59.733-26.795,59.733-59.733v-17.067C260.267,259.828,256.444,256.005,251.734,256.005z M243.201,281.605    c0,23.526-19.14,42.667-42.667,42.667h-8.533v-8.533c0-23.526,19.14-42.667,42.667-42.667h8.533V281.605z" fill="#1d1f2a"/>
	</g>
</g>
<g>
	<g>
		<path d="M409.814,9.759c-4.599-5.555-11.085-8.969-18.261-9.643c-7.185-0.657-14.182,1.493-19.729,6.101l-48.742,40.457    c-1.954,1.621-3.081,4.036-3.081,6.571v74.761c0,4.71,3.823,8.533,8.533,8.533h34.133c4.71,0,8.533-3.823,8.533-8.533V77.266    l35.226-29.653C417.716,38.098,419.243,21.125,409.814,9.759z M395.435,34.556l-38.263,32.205    c-1.929,1.621-3.038,4.011-3.038,6.528v46.182h-17.067h-0.008V57.255l45.662-37.896c2.031-1.69,4.591-2.483,7.245-2.236    c2.637,0.247,5.026,1.502,6.716,3.541C400.146,24.828,399.582,31.066,395.435,34.556z" fill="#1d1f2a"/>
	</g>
</g>
<g>
	<g>
		<path d="M419.388,224.654c-1.613-1.775-3.9-2.782-6.298-2.782H209.844c-2.398,0-4.685,0.99-6.306,2.765    c-1.621,1.775-2.415,4.139-2.202,6.528l3.533,38.818c0.256,2.756,1.826,5.222,4.224,6.613c2.398,1.391,5.316,1.519,7.834,0.367    c5.649-2.594,11.622-3.908,17.741-3.908h8.533v8.533c0,17.527-11.017,33.519-27.409,39.808c-3.567,1.365-5.786,4.932-5.444,8.738    l0.819,9.054c0.307,3.337,2.526,6.187,5.692,7.287c7.441,2.594,14.148,5.914,19.686,9.694l5.043,3.703    c12.501,9.984,21.146,23.108,25.003,37.956c8.149,31.428-6.989,64.99-37.683,83.507c-2.79,1.681-4.378,4.821-4.087,8.073    l1.348,14.831c0.401,4.395,4.087,7.765,8.499,7.765h153.6c4.412,0,8.098-3.371,8.499-7.757l24.823-273.067    C421.803,228.792,421.001,226.428,419.388,224.654z M380.476,494.938h-138.01l-0.179-1.894    c34.125-22.98,50.466-62.328,40.823-99.499c-4.796-18.441-15.471-34.697-31.138-47.206l-5.555-4.079    c-4.924-3.362-10.351-6.34-16.205-8.875c18.287-10.53,30.054-30.336,30.054-51.78v-17.067c0-4.71-3.823-8.533-8.533-8.533h-17.067    c-4.676,0-9.284,0.546-13.781,1.621l-1.698-18.688h184.559L380.476,494.938z" fill="#1d1f2a"/>
	</g>
</g>
<g>
	<g>
		<path d="M428.698,122.254c-1.613-1.775-3.9-2.782-6.298-2.782H200.534c-2.398,0-4.676,0.998-6.298,2.773    c-1.621,1.775-2.415,4.139-2.202,6.528l12.843,141.21c0.256,2.756,1.826,5.222,4.224,6.613c2.398,1.391,5.316,1.519,7.834,0.367    c5.649-2.594,11.622-3.908,17.741-3.908h8.533v8.533c0,17.519-11.017,33.519-27.418,39.808c-3.567,1.365-5.786,4.941-5.444,8.738    l0.819,9.054c0.307,3.337,2.526,6.187,5.692,7.287c7.441,2.594,14.148,5.914,19.686,9.694l5.043,3.703    c12.501,9.984,21.146,23.108,25.003,37.956c8.149,31.428-6.989,64.99-37.683,83.507c-2.79,1.681-4.378,4.821-4.087,8.073    l1.348,14.831c0.401,4.395,4.087,7.765,8.499,7.765h153.6c4.412,0,8.098-3.371,8.499-7.757L430.9,128.782    C431.113,126.392,430.311,124.028,428.698,122.254z M380.476,494.938h-138.01l-0.179-1.894    c34.125-22.98,50.466-62.328,40.823-99.499c-4.796-18.441-15.471-34.697-31.138-47.206l-5.555-4.079    c-4.924-3.362-10.351-6.34-16.205-8.875c18.278-10.539,30.054-30.345,30.054-51.78v-17.067c0-4.71-3.823-8.533-8.533-8.533    h-17.067c-4.676,0-9.284,0.546-13.781,1.621l-11.008-121.088h203.179L380.476,494.938z" fill="#1d1f2a"/>
	</g>
</g>
<g>
	<g>
		<path d="M399.215,446.52c-1.613-1.775-3.9-2.782-6.298-2.782H267.998c-3.174,0-6.093,1.766-7.569,4.582    c-6.963,13.355-17.86,24.764-31.522,33.007c-2.79,1.69-4.378,4.83-4.087,8.081l1.348,14.831c0.401,4.395,4.087,7.765,8.499,7.765    h153.6c4.412,0,8.098-3.371,8.499-7.757l4.651-51.2C401.63,450.659,400.828,448.295,399.215,446.52z M380.476,494.938h-138.01    l-0.179-1.903c12.715-8.559,23.211-19.567,30.729-32.23h110.558L380.476,494.938z" fill="#1d1f2a"/>
	</g>
</g>
<g>
	<g>
		<path d="M343.1,292.639l-25.6-25.6c-3.337-3.337-8.73-3.337-12.066,0l-25.6,25.6c-3.337,3.337-3.337,8.73,0,12.066l25.6,25.6    c1.664,1.664,3.849,2.5,6.033,2.5s4.369-0.836,6.033-2.5l25.6-25.6C346.437,301.368,346.437,295.975,343.1,292.639z     M311.467,312.206l-13.534-13.534l13.534-13.534l13.534,13.534L311.467,312.206z" fill="#1d1f2a"/>
	</g>
</g>
<g>
	<g>
		<path d="M368.7,386.505l-25.6-25.6c-3.337-3.336-8.73-3.336-12.066,0l-25.6,25.6c-3.337,3.337-3.337,8.73,0,12.066l25.6,25.6    c1.664,1.664,3.849,2.5,6.033,2.5c2.185,0,4.369-0.836,6.033-2.5l25.6-25.6C372.037,395.235,372.037,389.842,368.7,386.505z     M337.067,406.072l-13.534-13.534l13.534-13.534l13.534,13.534L337.067,406.072z" fill="#1d1f2a"/>
	</g>
</g>
<g>
</g>
<g>
</g>
<g>
</g>
<g>
</g>
<g>
</g>
<g>
</g>
<g>
</g>
<g>
</g>
<g>
</g>
<g>
</g>
<g>
</g>
<g>
</g>
<g>
</g>
<g>
</g>
<g>
</g>
</svg>
