<?xml version="1.0" encoding="iso-8859-1"?>
<!-- Generator: Adobe Illustrator 19.0.0, SVG Export Plug-In . SVG Version: 6.00 Build 0)  -->
<svg xmlns="http://www.w3.org/2000/svg" xmlns:xlink="http://www.w3.org/1999/xlink" version="1.1" id="Capa_1" x="0px" y="0px" viewBox="0 0 512 512" style="enable-background:new 0 0 512 512;" xml:space="preserve" width="512px" height="512px">
<g>
	<g>
		<path d="M256,238.933c-75.29,0-136.533,61.252-136.533,136.533S180.71,512,256,512c75.281,0,136.533-61.252,136.533-136.533    S331.281,238.933,256,238.933z M256,494.933c-65.877,0-119.467-53.589-119.467-119.467S190.123,256,256,256    s119.467,53.589,119.467,119.467S321.877,494.933,256,494.933z" fill="#1d1f2a"/>
	</g>
</g>
<g>
	<g>
		<path d="M256,273.067c-56.465,0-102.4,45.935-102.4,102.4s45.935,102.4,102.4,102.4s102.4-45.935,102.4-102.4    S312.465,273.067,256,273.067z M256,460.8c-47.053,0-85.333-38.281-85.333-85.333s38.281-85.333,85.333-85.333    s85.333,38.281,85.333,85.333S303.053,460.8,256,460.8z" fill="#1d1f2a"/>
	</g>
</g>
<g>
	<g>
		<path d="M256,204.8c-18.825,0-34.133,15.309-34.133,34.133c0,4.898,1.084,9.728,3.226,14.327c1.638,3.524,5.436,5.513,9.276,4.796    c15.181-2.765,28.092-2.765,43.273,0c0.512,0.102,1.024,0.145,1.536,0.145c3.268,0,6.315-1.894,7.731-4.941    c2.142-4.599,3.226-9.429,3.226-14.327C290.133,220.109,274.825,204.8,256,204.8z M273.024,240.068    c-5.811-0.759-11.435-1.135-17.024-1.135c-5.589,0-11.213,0.375-17.024,1.135c-0.026-0.375-0.043-0.759-0.043-1.135    c0-9.412,7.654-17.067,17.067-17.067c9.412,0,17.067,7.654,17.067,17.067C273.067,239.309,273.058,239.693,273.024,240.068z" fill="#1d1f2a"/>
	</g>
</g>
<g>
	<g>
		<path d="M256,170.667c-4.71,0-8.533,3.814-8.533,8.533v34.133c0,4.719,3.823,8.533,8.533,8.533c4.71,0,8.533-3.814,8.533-8.533    V179.2C264.533,174.481,260.71,170.667,256,170.667z" fill="#1d1f2a"/>
	</g>
</g>
<g>
	<g>
		<path d="M364.39,10.112C360.482,3.772,353.707,0,346.266,0h-30.532c-3.234,0-6.187,1.826-7.637,4.71l-85.333,170.667    c-1.323,2.645-1.178,5.786,0.375,8.303c1.562,2.517,4.301,4.053,7.262,4.053h51.2c3.234,0,6.187-1.826,7.629-4.71l76.092-152.183    C368.649,24.183,368.299,16.435,364.39,10.112z M350.063,23.202l-73.737,147.465h-32.119l76.8-153.6h25.259    c2.133,0,3.234,1.408,3.618,2.014C350.251,19.686,351.019,21.291,350.063,23.202z" fill="#1d1f2a"/>
	</g>
</g>
<g>
	<g>
		<path d="M263.637,124.186L203.904,4.719C202.453,1.826,199.501,0,196.267,0h-30.532c-7.441,0-14.216,3.772-18.125,10.112    c-3.908,6.323-4.258,14.071-0.939,20.719l76.092,152.183c1.451,2.893,4.403,4.719,7.637,4.719s6.187-1.826,7.637-4.71l25.6-51.2    C264.841,129.417,264.841,126.583,263.637,124.186z M230.4,160.119L161.946,23.194c-0.956-1.903-0.188-3.516,0.188-4.122    c0.367-0.597,1.468-2.005,3.601-2.005h25.259L246.46,128L230.4,160.119z" fill="#1d1f2a"/>
	</g>
</g>
<g>
	<g>
		<path d="M322.995,4.053C321.434,1.536,318.694,0,315.733,0H196.267c-2.961,0-5.7,1.536-7.262,4.053    c-1.553,2.517-1.69,5.658-0.375,8.294l17.067,34.133c1.451,2.893,4.403,4.719,7.637,4.719h85.333c3.234,0,6.187-1.826,7.637-4.71    l17.067-34.133C324.693,9.711,324.557,6.571,322.995,4.053z M293.393,34.133h-74.786l-8.533-17.067h91.853L293.393,34.133z" fill="#1d1f2a"/>
	</g>
</g>
<g>
	<g>
		<path d="M292.838,375.467l20.847-24.32c2.295-2.671,2.705-6.485,1.041-9.591c-1.672-3.115-5.111-4.838-8.576-4.429l-28.143,3.516    l-14.37-28.732c-2.893-5.786-12.373-5.786-15.266,0l-14.37,28.732l-28.143-3.516c-3.499-0.393-6.904,1.323-8.576,4.429    c-1.664,3.106-1.254,6.921,1.041,9.591l20.838,24.32l-20.847,24.311c-2.295,2.671-2.714,6.477-1.041,9.591    c1.673,3.115,5.069,4.847,8.576,4.429l28.143-3.516l14.37,28.732c1.451,2.893,4.403,4.719,7.637,4.719    c3.234,0,6.187-1.826,7.629-4.71l14.37-28.732l28.143,3.516c3.465,0.401,6.904-1.323,8.576-4.429    c1.664-3.106,1.254-6.921-1.041-9.591L292.838,375.467z M275.123,381.022l11.238,13.107l-12.237-1.528    c-3.558-0.41-7.074,1.408-8.695,4.651L256,416.12l-9.438-18.867c-1.459-2.918-4.429-4.719-7.629-4.719    c-0.35,0-0.7,0.026-1.058,0.06l-12.228,1.527l11.238-13.107c2.739-3.191,2.739-7.91,0-11.102l-11.238-13.107l12.228,1.527    c3.593,0.384,7.074-1.417,8.695-4.651L256,334.814l9.429,18.876c1.621,3.243,5.146,5.069,8.695,4.651l12.237-1.527l-11.238,13.107    C272.384,373.112,272.384,377.83,275.123,381.022z" fill="#1d1f2a"/>
	</g>
</g>
<g>
</g>
<g>
</g>
<g>
</g>
<g>
</g>
<g>
</g>
<g>
</g>
<g>
</g>
<g>
</g>
<g>
</g>
<g>
</g>
<g>
</g>
<g>
</g>
<g>
</g>
<g>
</g>
<g>
</g>
</svg>
