<?xml version="1.0" encoding="iso-8859-1"?>
<!-- Generator: Adobe Illustrator 19.0.0, SVG Export Plug-In . SVG Version: 6.00 Build 0)  -->
<svg xmlns="http://www.w3.org/2000/svg" xmlns:xlink="http://www.w3.org/1999/xlink" version="1.1" id="Capa_1" x="0px" y="0px" viewBox="0 0 512 512" style="enable-background:new 0 0 512 512;" xml:space="preserve" width="512px" height="512px">
<g>
	<g>
		<path d="M269.653,317.44c-3.772-2.833-9.114-2.048-11.947,1.707c-22.528,30.046-51.721,30.711-52.907,30.72h-51.2    c-4.71,0-8.533,3.823-8.533,8.533s3.823,8.533,8.533,8.533h51.2c1.57,0,38.724-0.427,66.56-37.547    C274.185,325.615,273.425,320.265,269.653,317.44z" fill="#1d1f2a"/>
	</g>
</g>
<g>
	<g>
		<path d="M340.565,167.134c-1.954-4.292-7.014-6.178-11.298-4.233c-4.292,1.954-6.187,7.014-4.241,11.298    c0.29,0.64,28.535,63.855,8.67,103.586c-2.108,4.215-0.401,9.344,3.814,11.452c1.229,0.606,2.534,0.896,3.814,0.896    c3.132,0,6.144-1.724,7.637-4.71C372.489,238.379,341.88,170.018,340.565,167.134z" fill="#1d1f2a"/>
	</g>
</g>
<g>
	<g>
		<path d="M296.721,267.631c-3.004-3.644-8.38-4.156-12.015-1.152s-4.147,8.38-1.152,12.015    c4.198,5.103,15.113,21.734,15.113,37.239c0,4.71,3.823,8.533,8.533,8.533s8.533-3.823,8.533-8.533    C315.733,290.987,297.498,268.578,296.721,267.631z" fill="#1d1f2a"/>
	</g>
</g>
<g>
	<g>
		<path d="M311.356,393.617c-4.122-2.304-9.318-0.819-11.614,3.294c-6.025,10.786-16.324,24.482-16.427,24.619    c-2.842,3.755-2.091,9.105,1.672,11.947c1.545,1.16,3.345,1.724,5.137,1.724c2.586,0,5.146-1.169,6.818-3.396    c0.452-0.597,11.102-14.754,17.707-26.581C316.945,401.109,315.469,395.913,311.356,393.617z" fill="#1d1f2a"/>
	</g>
</g>
<g>
	<g>
		<path d="M160.418,421.538c-0.102-0.137-10.394-13.798-16.427-24.619c-2.304-4.122-7.501-5.606-11.614-3.294    c-4.113,2.295-5.589,7.492-3.294,11.605c6.605,11.827,17.254,25.984,17.707,26.581c1.681,2.219,4.233,3.388,6.818,3.388    c1.784,0,3.593-0.563,5.137-1.707C162.509,430.652,163.26,425.301,160.418,421.538z" fill="#1d1f2a"/>
	</g>
</g>
<g>
	<g>
		<path d="M256,0C114.842,0,0,114.842,0,256s114.842,256,256,256s256-114.842,256-256S397.158,0,256,0z M256,494.933    C124.254,494.933,17.067,387.746,17.067,256S124.254,17.067,256,17.067S494.933,124.254,494.933,256S387.746,494.933,256,494.933z    " fill="#1d1f2a"/>
	</g>
</g>
<g>
	<g>
		<path d="M392.533,324.267c-4.71,0-8.533,3.823-8.533,8.533c0,4.71,3.823,8.533,8.533,8.533c9.412,0,17.067,7.654,17.067,17.067    s-7.654,17.067-17.067,17.067c-13.739,0-32.085,8.516-41.762,19.379c-8.9,9.993-24.866,23.287-60.638,23.287    c-4.71,0-8.533,3.823-8.533,8.533s3.823,8.533,8.533,8.533c32.009,0,56.013-9.489,73.387-29.005    c6.366-7.151,20.198-13.662,29.013-13.662c18.825,0,34.133-15.309,34.133-34.133S411.358,324.267,392.533,324.267z" fill="#1d1f2a"/>
	</g>
</g>
<g>
	<g>
		<path d="M358.417,98.432c-16.922-30.703-45.312-52.847-77.875-60.766c-18.048-4.386-30.976-3.456-30.857-3.448    c-20.685,0-59.802,12.501-59.802,59.802c0,20.685,12.501,59.802,59.802,59.802c0.836,0,20.71-0.137,37.009-12.279    c1.246-0.922,2.5-0.734,3.132-0.521c0.64,0.205,1.775,0.768,2.321,2.449c0.085,0.282,0.077,0.939-0.239,1.886l-1.067,3.115    c-5.598,16.29-20.386,59.298-15.838,99.362c-16.35-10.163-37.675-16.341-61.269-17.314c-36.147-1.451-70.033,9.028-91.81,27.938    c-16.913-18.722-66.321-27.401-112.853-27.401c-4.71,0-8.533,3.823-8.533,8.533s3.823,8.533,8.533,8.533    c65.911,0,101.862,16.478,101.862,24.943c0,3.584,2.244,6.793,5.623,8.021c3.379,1.237,7.151,0.213,9.455-2.543    c16.99-20.309,51.115-32.452,87.014-30.976c31.394,1.297,57.617,12.664,70.135,30.413c2.517,3.567,7.33,4.668,11.136,2.534    c3.806-2.133,5.402-6.792,3.678-10.812c-17.075-39.842,2.551-96.93,9.003-115.686l1.109-3.26c1.417-4.25,1.536-8.516,0.23-12.706    c-2.022-6.306-6.997-11.273-13.295-13.286s-13.218-0.862-18.526,3.089c-11.665,8.687-26.701,8.9-26.82,8.9    c-41.233,0-42.701-38.391-42.735-42.735c0-41.233,38.391-42.701,43.366-42.76c0.111,0.009,10.965-0.717,26.197,2.987    c27.93,6.793,52.335,25.899,66.961,52.42c26.803,48.623,67.038,163.533,51.78,219.469c-1.237,4.548,1.442,9.233,5.99,10.479    c0.751,0.205,1.51,0.307,2.253,0.307c3.755,0,7.194-2.5,8.226-6.289C429.193,266.547,385.63,147.78,358.417,98.432z" fill="#1d1f2a"/>
	</g>
</g>
<g>
	<g>
		<path d="M296.175,420.634c-3.328-3.337-8.738-3.337-12.066,0c-31.991,31.983-92.476,31.983-124.467,0    c-2.44-2.441-6.11-3.174-9.301-1.852c-2.91,1.195-4.89,3.883-5.222,6.963c-3.021,3.635-20.292,10.214-49.468,10.214    c-4.71,0-8.533,3.823-8.533,8.533s3.823,8.533,8.533,8.533c23.953,0,48.068-4.267,59.554-13.534    c18.44,14.566,42.556,21.854,66.662,21.854c27.605,0,55.202-9.549,74.308-28.646C299.511,429.363,299.511,423.97,296.175,420.634z    " fill="#1d1f2a"/>
	</g>
</g>
<g>
</g>
<g>
</g>
<g>
</g>
<g>
</g>
<g>
</g>
<g>
</g>
<g>
</g>
<g>
</g>
<g>
</g>
<g>
</g>
<g>
</g>
<g>
</g>
<g>
</g>
<g>
</g>
<g>
</g>
</svg>
