<?xml version="1.0" encoding="iso-8859-1"?>
<!-- Generator: Adobe Illustrator 19.0.0, SVG Export Plug-In . SVG Version: 6.00 Build 0)  -->
<svg xmlns="http://www.w3.org/2000/svg" xmlns:xlink="http://www.w3.org/1999/xlink" version="1.1" id="Capa_1" x="0px" y="0px" viewBox="0 0 512 512" style="enable-background:new 0 0 512 512;" xml:space="preserve" width="512px" height="512px">
<g>
	<g>
		<path d="M358.4,247.467h-11.793l-14.703-29.414c-1.408-2.807-4.25-4.625-7.398-4.71c-3.106-0.179-6.084,1.562-7.646,4.292    l-24.269,42.47l-19.883-66.287c-1.075-3.567-4.326-6.025-8.047-6.084c-3.977-0.145-7.049,2.304-8.226,5.837l-27.179,81.527    l-25.199-56.695c-1.34-3.012-4.301-4.983-7.603-5.06c-3.26-0.188-6.349,1.758-7.825,4.71l-14.703,29.414H153.6    c-4.71,0-8.533,3.823-8.533,8.533s3.823,8.533,8.533,8.533h25.6c3.234,0,6.187-1.826,7.637-4.719l8.977-17.963l26.786,60.279    c1.382,3.098,4.437,5.069,7.799,5.069c0.137,0,0.273,0,0.41-0.017c3.516-0.171,6.562-2.483,7.68-5.828l25.609-76.826l17.86,59.511    c0.981,3.277,3.814,5.649,7.202,6.033c3.379,0.401,6.69-1.289,8.38-4.25l26.223-45.884l9.933,19.874    c1.451,2.893,4.403,4.719,7.637,4.719H358.4c4.71,0,8.533-3.823,8.533-8.533S363.11,247.467,358.4,247.467z" fill="#1d1f2a"/>
	</g>
</g>
<g>
	<g>
		<path d="M401.067,426.667H110.933c-4.71,0-8.533,3.823-8.533,8.533v40.397c0,20.07,16.333,36.403,36.403,36.403h234.394    c20.07,0,36.403-16.333,36.403-36.403V435.2C409.6,430.49,405.777,426.667,401.067,426.667z M392.533,475.597    c0,10.658-8.67,19.336-19.328,19.336H138.803c-10.667,0-19.337-8.678-19.337-19.336v-31.864h273.067V475.597z" fill="#1d1f2a"/>
	</g>
</g>
<g>
	<g>
		<path d="M281.6,460.8h-51.2c-4.71,0-8.533,3.823-8.533,8.533s3.823,8.533,8.533,8.533h51.2c4.71,0,8.533-3.823,8.533-8.533    S286.31,460.8,281.6,460.8z" fill="#1d1f2a"/>
	</g>
</g>
<g>
	<g>
		<path d="M358.4,460.8h-34.133c-4.71,0-8.533,3.823-8.533,8.533s3.823,8.533,8.533,8.533H358.4c4.71,0,8.533-3.823,8.533-8.533    S363.11,460.8,358.4,460.8z" fill="#1d1f2a"/>
	</g>
</g>
<g>
	<g>
		<path d="M187.733,460.8H153.6c-4.71,0-8.533,3.823-8.533,8.533s3.823,8.533,8.533,8.533h34.133c4.71,0,8.533-3.823,8.533-8.533    S192.444,460.8,187.733,460.8z" fill="#1d1f2a"/>
	</g>
</g>
<g>
	<g>
		<path d="M373.205,0H138.803C118.733,0,102.4,16.333,102.4,36.403V76.8c0,4.71,3.823,8.533,8.533,8.533h290.133    c4.71,0,8.533-3.823,8.533-8.533V36.403C409.6,16.333,393.267,0,373.205,0z M392.533,68.267H119.467V36.403    c0-10.658,8.67-19.337,19.337-19.337h234.394c10.667,0,19.337,8.678,19.337,19.337V68.267z" fill="#1d1f2a"/>
	</g>
</g>
<g>
	<g>
		<path d="M298.667,34.133h-85.333c-4.71,0-8.533,3.823-8.533,8.533c0,4.71,3.823,8.533,8.533,8.533h85.333    c4.71,0,8.533-3.823,8.533-8.533C307.2,37.956,303.377,34.133,298.667,34.133z" fill="#1d1f2a"/>
	</g>
</g>
<g>
	<g>
		<path d="M401.067,68.267H110.933c-4.71,0-8.533,3.823-8.533,8.533v358.4c0,4.71,3.823,8.533,8.533,8.533h290.133    c4.71,0,8.533-3.823,8.533-8.533V76.8C409.6,72.09,405.777,68.267,401.067,68.267z M392.533,426.667H119.467V85.333h273.067    V426.667z" fill="#1d1f2a"/>
	</g>
</g>
<g>
	<g>
		<path d="M366.933,110.933H196.267c-4.71,0-8.533,3.823-8.533,8.533s3.823,8.533,8.533,8.533h170.667    c4.71,0,8.533-3.823,8.533-8.533S371.644,110.933,366.933,110.933z" fill="#1d1f2a"/>
	</g>
</g>
<g>
	<g>
		<path d="M161.877,110.933h-16.811c-4.71,0-8.533,3.823-8.533,8.533s3.823,8.533,8.533,8.533h16.811    c4.71,0,8.533-3.823,8.533-8.533S166.588,110.933,161.877,110.933z" fill="#1d1f2a"/>
	</g>
</g>
<g>
	<g>
		<path d="M187.733,145.067h-42.667c-4.71,0-8.533,3.823-8.533,8.533c0,4.71,3.823,8.533,8.533,8.533h42.667    c4.71,0,8.533-3.823,8.533-8.533C196.267,148.89,192.444,145.067,187.733,145.067z" fill="#1d1f2a"/>
	</g>
</g>
<g>
	<g>
		<path d="M366.933,145.067h-17.067c-4.71,0-8.533,3.823-8.533,8.533c0,4.71,3.823,8.533,8.533,8.533h17.067    c4.71,0,8.533-3.823,8.533-8.533C375.467,148.89,371.644,145.067,366.933,145.067z" fill="#1d1f2a"/>
	</g>
</g>
<g>
	<g>
		<path d="M315.733,145.067h-93.867c-4.71,0-8.533,3.823-8.533,8.533c0,4.71,3.823,8.533,8.533,8.533h93.867    c4.71,0,8.533-3.823,8.533-8.533C324.267,148.89,320.444,145.067,315.733,145.067z" fill="#1d1f2a"/>
	</g>
</g>
<g>
	<g>
		<path d="M196.267,332.8h-51.2c-4.71,0-8.533,3.823-8.533,8.533v51.2c0,4.71,3.823,8.533,8.533,8.533h51.2    c4.71,0,8.533-3.823,8.533-8.533v-51.2C204.8,336.623,200.977,332.8,196.267,332.8z M187.733,384H153.6v-34.133h34.133V384z" fill="#1d1f2a"/>
	</g>
</g>
<g>
	<g>
		<path d="M366.933,332.8h-51.2c-4.71,0-8.533,3.823-8.533,8.533v51.2c0,4.71,3.823,8.533,8.533,8.533h51.2    c4.71,0,8.533-3.823,8.533-8.533v-51.2C375.467,336.623,371.644,332.8,366.933,332.8z M358.4,384h-34.133v-34.133H358.4V384z" fill="#1d1f2a"/>
	</g>
</g>
<g>
	<g>
		<path d="M281.6,332.8h-51.2c-4.71,0-8.533,3.823-8.533,8.533v51.2c0,4.71,3.823,8.533,8.533,8.533h51.2    c4.71,0,8.533-3.823,8.533-8.533v-51.2C290.133,336.623,286.31,332.8,281.6,332.8z M273.067,384h-34.133v-34.133h34.133V384z" fill="#1d1f2a"/>
	</g>
</g>
<g>
</g>
<g>
</g>
<g>
</g>
<g>
</g>
<g>
</g>
<g>
</g>
<g>
</g>
<g>
</g>
<g>
</g>
<g>
</g>
<g>
</g>
<g>
</g>
<g>
</g>
<g>
</g>
<g>
</g>
</svg>
