<?xml version="1.0" encoding="iso-8859-1"?>
<!-- Generator: Adobe Illustrator 19.0.0, SVG Export Plug-In . SVG Version: 6.00 Build 0)  -->
<svg xmlns="http://www.w3.org/2000/svg" xmlns:xlink="http://www.w3.org/1999/xlink" version="1.1" id="Capa_1" x="0px" y="0px" viewBox="0 0 512 512" style="enable-background:new 0 0 512 512;" xml:space="preserve" width="512px" height="512px">
<g>
	<g>
		<path d="M256,0C114.842,0,0,114.842,0,256s114.842,256,256,256s256-114.842,256-256S397.158,0,256,0z M256,494.933    C124.254,494.933,17.067,387.746,17.067,256S124.254,17.067,256,17.067S494.933,124.254,494.933,256S387.746,494.933,256,494.933z    " fill="#676a79"/>
	</g>
</g>
<g>
	<g>
		<path d="M204.493,108.715c-1.229-4.557-5.905-7.228-10.462-6.016l-116.54,31.497c-8.909,2.406-17.092,6.545-24.311,12.297    l-39.518,31.471c-3.686,2.927-4.292,8.303-1.357,11.989c1.681,2.116,4.173,3.217,6.682,3.217c1.86,0,3.738-0.614,5.308-1.86    l39.518-31.471c5.393-4.292,11.494-7.381,18.142-9.173l116.531-31.488C203.034,117.948,205.722,113.271,204.493,108.715z" fill="#676a79"/>
	</g>
</g>
<g>
	<g>
		<path d="M140.416,77.747c-0.529-0.333-5.478-4.011-15.181-29.611c-1.664-4.403-6.588-6.639-11-4.958    c-4.412,1.673-6.63,6.596-4.958,11.008c11.153,29.423,18.099,36.122,23.432,38.784c1.178,0.589,2.406,0.862,3.601,0.862    c2.953,0,5.751-1.681,7.33-4.497C145.869,85.376,144.273,80.171,140.416,77.747z" fill="#676a79"/>
	</g>
</g>
<g>
	<g>
		<path d="M323.831,236.237c-1.493-4.471-6.349-6.895-10.795-5.393c-45.773,15.258-65.843,81.98-72.354,109.952    c-1.536,6.605-3.362,12.373-5.589,17.63c-0.691,1.655-1.417,3.277-2.142,4.881c-12.433,27.281-33.263,48.418-58.65,59.494    c-29.252,12.766-59.853,12.501-90.957-0.802c-4.344-1.86-9.353,0.154-11.204,4.489c-1.852,4.326,0.154,9.344,4.489,11.196    c18.099,7.74,36.087,11.605,53.828,11.605c17.152,0,34.074-3.618,50.662-10.854c29.261-12.766,53.18-36.941,67.362-68.062    c0.794-1.749,1.57-3.524,2.33-5.308c2.611-6.17,4.736-12.843,6.494-20.412c4.565-19.644,22.485-84.736,61.124-97.621    C322.901,245.538,325.325,240.708,323.831,236.237z" fill="#676a79"/>
	</g>
</g>
<g>
	<g>
		<path d="M290.133,247.467c-4.71,0-8.533,3.823-8.533,8.533v25.6c0,4.71,3.823,8.533,8.533,8.533s8.533-3.823,8.533-8.533V256    C298.667,251.29,294.844,247.467,290.133,247.467z" fill="#676a79"/>
	</g>
</g>
<g>
	<g>
		<path d="M443.861,244.446c1.886-53.717-12.57-97.118-42.999-129.033c-52.489-55.049-132.932-55.68-136.329-55.68    c-52.002,0-99.533-13.833-130.236-25.429c-2.406-0.905-5.094-0.691-7.322,0.614C48.657,80.725,0,165.444,0,256    c0,134.451,105.02,246.63,239.087,255.386c0.188,0.017,0.375,0.017,0.563,0.017c4.412,0,8.141-3.379,8.508-7.825    c2.97-36.352,14.857-54.955,14.95-55.108c0.196-0.29,0.367-0.597,0.529-0.913c22.673-45.346,19.9-84.207,18.355-95.855    c4.488-7.637,7.765-16.785,10.163-26.095c13.918,37.521,38.11,71.091,50.773,87.168c5.547,7.04,10.035,14.95,13.346,23.526    l14.532,37.615c0.896,2.321,2.756,4.13,5.103,4.966c2.338,0.828,4.932,0.597,7.091-0.64    c39.305-22.511,72.055-55.125,94.729-94.345c0.742-1.297,1.143-2.765,1.143-4.258    C478.985,294.929,452.463,255.121,443.861,244.446z M383.061,458.274l-10.88-28.151c-3.925-10.155-9.259-19.558-15.855-27.93    c-17.34-22.016-57.668-78.669-57.668-129.143c0-0.034,0-0.06,0-0.094c0-0.034,0-0.068,0-0.102c0-0.009,0-0.009,0-0.017    c0-0.017,0-0.034,0-0.034c0-0.009,0-0.009,0-0.009c0-0.009,0-0.017,0-0.017c0-0.009,0-0.026,0-0.034c0-0.008,0-0.008,0-0.008    c0-0.009,0-0.009,0-0.009c0-0.009,0-0.009,0-0.009c0-0.009,0-0.009,0-0.009c0-0.008,0-0.008,0-0.008    c-0.196-4.548-3.934-8.166-8.525-8.166c-4.71,0-8.533,3.814-8.533,8.533c0,0.486-0.213,48.939-15.642,72.064    c-1.254,1.886-1.707,4.19-1.263,6.409c0.085,0.401,7.646,40.141-16.137,87.996c-2.057,3.311-12.501,21.419-16.546,54.144    C110.822,481.587,17.067,378.735,17.067,256c0-83.183,43.989-161.084,115.072-204.288C164.224,63.488,212.105,76.8,264.533,76.8    c0.76,0,76.476,0.572,123.981,50.372c27.725,29.073,40.559,69.402,38.161,119.868c-0.12,2.389,0.776,4.71,2.458,6.409    c0.324,0.333,32.247,33.604,32.666,123.853C442.377,410.172,415.317,437.973,383.061,458.274z" fill="#676a79"/>
	</g>
</g>
<g>
	<g>
		<path d="M442.436,242.935c-12.732-20.318-30.524-25.873-31.275-26.095c-4.497-1.34-9.276,1.195-10.633,5.709    c-1.357,4.514,1.195,9.276,5.709,10.633c0.128,0.043,12.518,4.104,21.734,18.816c1.621,2.586,4.395,4.002,7.236,4.002    c1.545,0,3.115-0.418,4.531-1.306C443.733,252.194,444.937,246.929,442.436,242.935z" fill="#676a79"/>
	</g>
</g>
<g>
	<g>
		<path d="M170.667,366.933c-4.71,0-8.533,3.823-8.533,8.533c0,9.412-7.654,17.067-17.067,17.067    c-9.412,0-17.067-7.654-17.067-17.067c0-4.71-3.823-8.533-8.533-8.533s-8.533,3.823-8.533,8.533    c0,18.825,15.309,34.133,34.133,34.133s34.133-15.309,34.133-34.133C179.2,370.756,175.377,366.933,170.667,366.933z" fill="#676a79"/>
	</g>
</g>
<g>
</g>
<g>
</g>
<g>
</g>
<g>
</g>
<g>
</g>
<g>
</g>
<g>
</g>
<g>
</g>
<g>
</g>
<g>
</g>
<g>
</g>
<g>
</g>
<g>
</g>
<g>
</g>
<g>
</g>
</svg>
