<?xml version="1.0" encoding="iso-8859-1"?>
<!-- Generator: Adobe Illustrator 19.0.0, SVG Export Plug-In . SVG Version: 6.00 Build 0)  -->
<svg xmlns="http://www.w3.org/2000/svg" xmlns:xlink="http://www.w3.org/1999/xlink" version="1.1" id="Capa_1" x="0px" y="0px" viewBox="0 0 512 512" style="enable-background:new 0 0 512 512;" xml:space="preserve" width="512px" height="512px">
<g>
	<g>
		<path d="M358.4,256H136.533c-4.71,0-8.533,3.814-8.533,8.533v225.289C128,502.05,137.95,512,150.17,512h194.594    c12.22,0,22.17-9.95,22.17-22.178V264.533C366.933,259.814,363.11,256,358.4,256z M349.867,489.822    c0,2.816-2.295,5.111-5.112,5.111H150.17c-2.807,0-5.103-2.295-5.103-5.111V273.067h204.8V489.822z" fill="#676a79"/>
	</g>
</g>
<g>
	<g>
		<path d="M344.755,110.933H150.17c-12.22,0-22.17,9.95-22.17,22.178V204.8c0,4.719,3.823,8.533,8.533,8.533H358.4    c4.71,0,8.533-3.814,8.533-8.533v-71.689C366.933,120.883,356.983,110.933,344.755,110.933z M349.867,196.267h-204.8v-63.155    c0-2.816,2.295-5.111,5.103-5.111h194.594c2.807,0,5.103,2.295,5.103,5.111V196.267z" fill="#676a79"/>
	</g>
</g>
<g>
	<g>
		<path d="M341.333,196.267H153.6c-4.71,0-8.533,3.814-8.533,8.533v59.733c0,4.719,3.823,8.533,8.533,8.533h187.733    c4.71,0,8.533-3.814,8.533-8.533V204.8C349.867,200.081,346.044,196.267,341.333,196.267z M332.8,256H162.133v-42.667H332.8V256z" fill="#676a79"/>
	</g>
</g>
<g>
	<g>
		<path d="M298.667,68.267h-102.4c-28.228,0-51.2,22.963-51.2,51.2c0,4.719,3.823,8.533,8.533,8.533h187.733    c4.71,0,8.533-3.814,8.533-8.533C349.867,91.23,326.895,68.267,298.667,68.267z M163.209,110.933    c3.806-14.711,17.186-25.6,33.058-25.6h102.391c15.88,0,29.261,10.889,33.058,25.6H163.209z" fill="#676a79"/>
	</g>
</g>
<g>
	<g>
		<path d="M273.067,0h-51.2c-4.71,0-8.533,3.814-8.533,8.533V76.8c0,4.719,3.823,8.533,8.533,8.533h51.2    c4.71,0,8.533-3.814,8.533-8.533V8.533C281.6,3.814,277.777,0,273.067,0z M264.533,68.267H230.4v-51.2h34.133V68.267z" fill="#676a79"/>
	</g>
</g>
<g>
	<g>
		<path d="M290.133,34.133H204.8c-4.71,0-8.533,3.814-8.533,8.533S200.09,51.2,204.8,51.2h85.333c4.71,0,8.533-3.814,8.533-8.533    S294.844,34.133,290.133,34.133z" fill="#676a79"/>
	</g>
</g>
<g>
	<g>
		<path d="M290.133,0H204.8c-4.71,0-8.533,3.814-8.533,8.533s3.823,8.533,8.533,8.533h85.333c4.71,0,8.533-3.814,8.533-8.533    S294.844,0,290.133,0z" fill="#676a79"/>
	</g>
</g>
<g>
	<g>
		<path d="M349.867,34.133h-59.733c-4.71,0-8.533,3.814-8.533,8.533s3.823,8.533,8.533,8.533h59.733    c9.412,0,17.067,7.654,17.067,17.067c0,9.412-7.654,17.067-17.067,17.067H332.8c-4.71,0-8.533,3.814-8.533,8.533    c0,4.719,3.823,8.533,8.533,8.533h17.067C368.691,102.4,384,87.091,384,68.267S368.691,34.133,349.867,34.133z" fill="#676a79"/>
	</g>
</g>
<g>
	<g>
		<path d="M273.067,358.4c-4.71,0-8.533,3.814-8.533,8.533c0,9.412-7.654,17.067-17.067,17.067s-17.067-7.654-17.067-17.067    s7.654-17.067,17.067-17.067c4.71,0,8.533-3.814,8.533-8.533c0-4.719-3.823-8.533-8.533-8.533    c-18.825,0-34.133,15.309-34.133,34.133s15.309,34.133,34.133,34.133s34.133-15.309,34.133-34.133    C281.6,362.214,277.777,358.4,273.067,358.4z" fill="#676a79"/>
	</g>
</g>
<g>
	<g>
		<path d="M247.467,298.667c-37.641,0-68.267,30.626-68.267,68.267s30.626,68.267,68.267,68.267s68.267-30.626,68.267-68.267    S285.107,298.667,247.467,298.667z M247.467,418.133c-28.228,0-51.2-22.963-51.2-51.2c0-28.237,22.972-51.2,51.2-51.2    s51.2,22.963,51.2,51.2C298.667,395.17,275.695,418.133,247.467,418.133z" fill="#676a79"/>
	</g>
</g>
<g>
	<g>
		<path d="M290.133,460.8h-153.6c-4.71,0-8.533,3.814-8.533,8.533s3.823,8.533,8.533,8.533h153.6c4.71,0,8.533-3.814,8.533-8.533    S294.844,460.8,290.133,460.8z" fill="#676a79"/>
	</g>
</g>
<g>
	<g>
		<path d="M358.4,460.8h-34.133c-4.71,0-8.533,3.814-8.533,8.533s3.823,8.533,8.533,8.533H358.4c4.71,0,8.533-3.814,8.533-8.533    S363.11,460.8,358.4,460.8z" fill="#676a79"/>
	</g>
</g>
<g>
	<g>
		<path d="M358.4,153.6H204.8c-4.71,0-8.533,3.814-8.533,8.533s3.823,8.533,8.533,8.533h153.6c4.71,0,8.533-3.814,8.533-8.533    S363.11,153.6,358.4,153.6z" fill="#676a79"/>
	</g>
</g>
<g>
	<g>
		<path d="M170.667,153.6h-34.133c-4.71,0-8.533,3.814-8.533,8.533s3.823,8.533,8.533,8.533h34.133c4.71,0,8.533-3.814,8.533-8.533    S175.377,153.6,170.667,153.6z" fill="#676a79"/>
	</g>
</g>
<g>
</g>
<g>
</g>
<g>
</g>
<g>
</g>
<g>
</g>
<g>
</g>
<g>
</g>
<g>
</g>
<g>
</g>
<g>
</g>
<g>
</g>
<g>
</g>
<g>
</g>
<g>
</g>
<g>
</g>
</svg>
