<?xml version="1.0" encoding="iso-8859-1"?>
<!-- Generator: Adobe Illustrator 19.0.0, SVG Export Plug-In . SVG Version: 6.00 Build 0)  -->
<svg xmlns="http://www.w3.org/2000/svg" xmlns:xlink="http://www.w3.org/1999/xlink" version="1.1" id="Capa_1" x="0px" y="0px" viewBox="0 0 512 512" style="enable-background:new 0 0 512 512;" xml:space="preserve" width="512px" height="512px">
<g>
	<g>
		<path d="M503.467,443.733h-34.133c-4.71,0-8.533,3.823-8.533,8.533s3.823,8.533,8.533,8.533h34.133    c4.71,0,8.533-3.823,8.533-8.533S508.177,443.733,503.467,443.733z" fill="#676a79"/>
	</g>
</g>
<g>
	<g>
		<path d="M162.133,443.733H8.533c-4.71,0-8.533,3.823-8.533,8.533s3.823,8.533,8.533,8.533h153.6c4.71,0,8.533-3.823,8.533-8.533    S166.844,443.733,162.133,443.733z" fill="#676a79"/>
	</g>
</g>
<g>
	<g>
		<path d="M418.133,443.733h-68.267c-4.71,0-8.533,3.823-8.533,8.533s3.823,8.533,8.533,8.533h68.267    c4.71,0,8.533-3.823,8.533-8.533S422.844,443.733,418.133,443.733z" fill="#676a79"/>
	</g>
</g>
<g>
	<g>
		<path d="M145.067,409.6h-34.133c-4.71,0-8.533,3.823-8.533,8.533v34.133c0,4.71,3.823,8.533,8.533,8.533h34.133    c4.71,0,8.533-3.823,8.533-8.533v-34.133C153.6,413.423,149.777,409.6,145.067,409.6z M136.533,443.733h-17.067v-17.067h17.067    V443.733z" fill="#676a79"/>
	</g>
</g>
<g>
	<g>
		<path d="M59.733,51.2c-14.114,0-25.6,11.486-25.6,25.6v136.533c0,14.114,11.486,25.6,25.6,25.6s25.6-11.486,25.6-25.6V76.8    C85.333,62.686,73.847,51.2,59.733,51.2z M68.267,213.333c0,4.702-3.823,8.533-8.533,8.533s-8.533-3.831-8.533-8.533V76.8    c0-4.702,3.823-8.533,8.533-8.533s8.533,3.831,8.533,8.533V213.333z" fill="#676a79"/>
	</g>
</g>
<g>
	<g>
		<path d="M145.067,85.333h-34.133c-4.71,0-8.533,3.823-8.533,8.533v93.867c0,14.114,11.486,25.6,25.6,25.6s25.6-11.486,25.6-25.6    V93.867C153.6,89.156,149.777,85.333,145.067,85.333z M136.533,187.733c0,4.702-3.823,8.533-8.533,8.533s-8.533-3.831-8.533-8.533    V102.4h17.067V187.733z" fill="#676a79"/>
	</g>
</g>
<g>
	<g>
		<path d="M401.067,85.333h-34.133c-4.71,0-8.533,3.823-8.533,8.533v93.867c0,14.114,11.486,25.6,25.6,25.6s25.6-11.486,25.6-25.6    V93.867C409.6,89.156,405.777,85.333,401.067,85.333z M392.533,187.733c0,4.702-3.823,8.533-8.533,8.533s-8.533-3.831-8.533-8.533    V102.4h17.067V187.733z" fill="#676a79"/>
	</g>
</g>
<g>
	<g>
		<path d="M110.933,119.467H76.8c-4.71,0-8.533,3.823-8.533,8.533v34.133c0,4.71,3.823,8.533,8.533,8.533h34.133    c4.71,0,8.533-3.823,8.533-8.533V128C119.467,123.29,115.644,119.467,110.933,119.467z M102.4,153.6H85.333v-17.067H102.4V153.6z" fill="#676a79"/>
	</g>
</g>
<g>
	<g>
		<path d="M435.2,119.467h-34.133c-4.71,0-8.533,3.823-8.533,8.533v34.133c0,4.71,3.823,8.533,8.533,8.533H435.2    c4.71,0,8.533-3.823,8.533-8.533V128C443.733,123.29,439.91,119.467,435.2,119.467z M426.667,153.6H409.6v-17.067h17.067V153.6z" fill="#676a79"/>
	</g>
</g>
<g>
	<g>
		<path d="M366.933,119.467H145.067c-4.71,0-8.533,3.823-8.533,8.533v34.133c0,4.71,3.823,8.533,8.533,8.533h221.867    c4.71,0,8.533-3.823,8.533-8.533V128C375.467,123.29,371.644,119.467,366.933,119.467z M358.4,153.6H153.6v-17.067h204.8V153.6z" fill="#676a79"/>
	</g>
</g>
<g>
	<g>
		<path d="M452.267,51.2c-14.114,0-25.6,11.486-25.6,25.6v136.533c0,14.114,11.486,25.6,25.6,25.6c14.114,0,25.6-11.486,25.6-25.6    V76.8C477.867,62.686,466.381,51.2,452.267,51.2z M460.8,213.333c0,4.702-3.823,8.533-8.533,8.533    c-4.71,0-8.533-3.831-8.533-8.533V76.8c0-4.702,3.823-8.533,8.533-8.533c4.71,0,8.533,3.831,8.533,8.533V213.333z" fill="#676a79"/>
	</g>
</g>
<g>
	<g>
		<path d="M503.467,119.467h-34.133c-4.71,0-8.533,3.823-8.533,8.533v34.133c0,4.71,3.823,8.533,8.533,8.533h34.133    c4.71,0,8.533-3.823,8.533-8.533V128C512,123.29,508.177,119.467,503.467,119.467z M494.933,153.6h-17.067v-17.067h17.067V153.6z" fill="#676a79"/>
	</g>
</g>
<g>
	<g>
		<path d="M42.667,119.467H8.533C3.823,119.467,0,123.29,0,128v34.133c0,4.71,3.823,8.533,8.533,8.533h34.133    c4.71,0,8.533-3.823,8.533-8.533V128C51.2,123.29,47.377,119.467,42.667,119.467z M34.133,153.6H17.067v-17.067h17.067V153.6z" fill="#676a79"/>
	</g>
</g>
<g>
	<g>
		<path d="M128,196.267c-4.71,0-8.533,3.823-8.533,8.533v213.333c0,4.71,3.823,8.533,8.533,8.533s8.533-3.823,8.533-8.533V204.8    C136.533,200.09,132.71,196.267,128,196.267z" fill="#676a79"/>
	</g>
</g>
<g>
	<g>
		<path d="M401.067,409.6h-34.133c-4.71,0-8.533,3.823-8.533,8.533v34.133c0,4.71,3.823,8.533,8.533,8.533h34.133    c4.71,0,8.533-3.823,8.533-8.533v-34.133C409.6,413.423,405.777,409.6,401.067,409.6z M392.533,443.733h-17.067v-17.067h17.067    V443.733z" fill="#676a79"/>
	</g>
</g>
<g>
	<g>
		<path d="M384,196.267c-4.71,0-8.533,3.823-8.533,8.533v213.333c0,4.71,3.823,8.533,8.533,8.533s8.533-3.823,8.533-8.533V204.8    C392.533,200.09,388.71,196.267,384,196.267z" fill="#676a79"/>
	</g>
</g>
<g>
	<g>
		<path d="M326.844,273.067H185.156c-12.698,0-23.023,10.325-23.023,23.023v39.287c0,12.698,10.325,23.023,23.023,23.023h141.688    c12.698,0,23.023-10.325,23.023-23.023V296.09C349.867,283.392,339.541,273.067,326.844,273.067z M332.8,335.377    c0,3.285-2.671,5.956-5.956,5.956H185.156c-3.285,0-5.956-2.671-5.956-5.956V296.09c0-3.285,2.671-5.956,5.956-5.956h141.688    c3.285,0,5.956,2.671,5.956,5.956V335.377z" fill="#676a79"/>
	</g>
</g>
<g>
	<g>
		<path d="M196.267,341.333c-4.71,0-8.533,3.823-8.533,8.533v102.4c0,4.71,3.823,8.533,8.533,8.533s8.533-3.823,8.533-8.533v-102.4    C204.8,345.156,200.977,341.333,196.267,341.333z" fill="#676a79"/>
	</g>
</g>
<g>
	<g>
		<path d="M315.733,341.333c-4.71,0-8.533,3.823-8.533,8.533v102.4c0,4.71,3.823,8.533,8.533,8.533s8.533-3.823,8.533-8.533v-102.4    C324.267,345.156,320.444,341.333,315.733,341.333z" fill="#676a79"/>
	</g>
</g>
<g>
	<g>
		<path d="M341.333,307.2h-25.6c-4.71,0-8.533,3.823-8.533,8.533s3.823,8.533,8.533,8.533h25.6c4.71,0,8.533-3.823,8.533-8.533    S346.044,307.2,341.333,307.2z" fill="#676a79"/>
	</g>
</g>
<g>
	<g>
		<path d="M281.6,307.2H170.667c-4.71,0-8.533,3.823-8.533,8.533s3.823,8.533,8.533,8.533H281.6c4.71,0,8.533-3.823,8.533-8.533    S286.31,307.2,281.6,307.2z" fill="#676a79"/>
	</g>
</g>
<g>
</g>
<g>
</g>
<g>
</g>
<g>
</g>
<g>
</g>
<g>
</g>
<g>
</g>
<g>
</g>
<g>
</g>
<g>
</g>
<g>
</g>
<g>
</g>
<g>
</g>
<g>
</g>
<g>
</g>
</svg>
