<?xml version="1.0" encoding="iso-8859-1"?>
<!-- Generator: Adobe Illustrator 19.0.0, SVG Export Plug-In . SVG Version: 6.00 Build 0)  -->
<svg xmlns="http://www.w3.org/2000/svg" xmlns:xlink="http://www.w3.org/1999/xlink" version="1.1" id="Capa_1" x="0px" y="0px" viewBox="0 0 512 512" style="enable-background:new 0 0 512 512;" xml:space="preserve" width="512px" height="512px">
<g>
	<g>
		<path d="M194.766,453.061L58.935,317.221c-12.894-12.902-35.379-12.894-48.272,0l-0.666,0.666    c-13.312,13.312-13.312,34.969,0,48.272l135.831,135.84c6.451,6.451,15.018,10.001,24.14,10.001    c9.113,0,17.689-3.55,24.132-10.001l0.666-0.666c6.451-6.443,10.001-15.01,10.001-24.132    C204.767,468.08,201.217,459.512,194.766,453.061z M182.691,489.267l-0.666,0.666c-6.451,6.451-17.689,6.451-24.14,0    L22.054,354.093c-6.656-6.656-6.656-17.484,0-24.14l0.666-0.666c3.226-3.226,7.509-5,12.074-5c4.557,0,8.84,1.775,12.066,5    l135.831,135.84c3.226,3.226,5,7.518,5,12.074S185.917,486.042,182.691,489.267z" fill="#676a79"/>
	</g>
</g>
<g>
	<g>
		<path d="M108.41,440.441l-36.863-36.863c-3.336-3.336-8.729-3.336-12.066,0l-24.576,24.576c-3.336,3.336-3.336,8.729,0,12.066    l36.863,36.872c1.596,1.604,3.772,2.5,6.033,2.5s4.437-0.896,6.033-2.509l24.576-24.576    C111.746,449.17,111.746,443.777,108.41,440.441z M77.801,458.992l-24.797-24.806l12.51-12.501l24.797,24.797L77.801,458.992z" fill="#676a79"/>
	</g>
</g>
<g>
	<g>
		<path d="M501.986,145.841L366.155,10.001C359.704,3.55,351.128,0,342.015,0c-9.122,0-17.698,3.55-24.14,10.001l-0.666,0.666    c-13.312,13.303-13.312,34.961,0,48.272l135.831,135.84c6.656,6.647,15.394,9.975,24.132,9.975c8.746,0,17.484-3.328,24.157-9.975    l0.666-0.666c6.443-6.451,9.992-15.027,9.992-24.14C511.987,160.859,508.437,152.283,501.986,145.841z M489.903,182.047    l-0.666,0.666c-6.647,6.647-17.485,6.656-24.14,0L329.266,46.873c-6.656-6.656-6.656-17.484,0-24.14l0.666-0.666    c3.226-3.226,7.509-5,12.074-5c4.557,0,8.84,1.775,12.066,5l135.831,135.84c3.226,3.226,5,7.501,5,12.066    C494.904,174.538,493.129,178.822,489.903,182.047z" fill="#676a79"/>
	</g>
</g>
<g>
	<g>
		<path d="M477.061,71.773l-36.863-36.863c-3.2-3.2-8.866-3.2-12.066,0l-24.576,24.576c-3.336,3.336-3.336,8.729,0,12.066    l36.863,36.863c1.596,1.604,3.772,2.5,6.033,2.5s4.437-0.896,6.033-2.5l24.576-24.576    C480.397,80.502,480.397,75.109,477.061,71.773z M446.452,90.315l-24.797-24.797l12.51-12.51l24.797,24.797L446.452,90.315z" fill="#676a79"/>
	</g>
</g>
<g>
	<g>
		<g>
			<path d="M343.585,174.299c-0.811-2.859-3.046-5.094-5.896-5.896l-67.096-18.927c-2.978-0.853-6.178-0.009-8.354,2.176     L151.639,262.251c-2.176,2.185-3.012,5.384-2.176,8.354l18.927,67.096c0.811,2.859,3.046,5.094,5.896,5.896l67.096,18.927     c0.759,0.222,1.545,0.324,2.313,0.324c2.236,0,4.412-0.879,6.042-2.5l110.599-110.599c2.176-2.185,3.012-5.384,2.176-8.354     L343.585,174.299z M241.203,344.741l-57.684-16.273l-16.273-57.684l103.525-103.525l57.684,16.273l16.273,57.684L241.203,344.741     z" fill="#676a79"/>
			<path d="M409.478,127.068l-24.576-24.576c-3.2-3.2-8.866-3.2-12.066,0l-27.17,27.178l-81.193-23.202     c-2.978-0.853-6.195-0.034-8.38,2.167L108.632,256.107c-2.185,2.193-3.021,5.393-2.167,8.38l23.193,81.193l-27.17,27.178     c-3.336,3.336-3.336,8.729,0,12.066l24.576,24.576c1.596,1.604,3.772,2.5,6.033,2.5c2.27,0,4.437-0.896,6.033-2.5l27.17-27.178     l81.193,23.202c2.97,0.845,6.187,0.026,8.38-2.167l147.462-147.471c2.185-2.193,3.021-5.393,2.167-8.38l-23.193-81.202     l27.17-27.17C412.814,135.797,412.814,130.404,409.478,127.068z M366.693,157.787c-2.185,2.193-3.021,5.393-2.167,8.38     l23.193,81.202L247.356,387.74l-81.193-23.202c-2.978-0.862-6.187-0.034-8.38,2.167L133.096,391.4l-12.51-12.51l24.695-24.695     c2.185-2.193,3.021-5.401,2.167-8.38l-23.193-81.193l140.371-140.371l81.185,23.202c2.961,0.853,6.178,0.026,8.371-2.167     l24.687-24.695l12.51,12.51L366.693,157.787z" fill="#676a79"/>
		</g>
	</g>
</g>
<g>
	<g>
		<path d="M286.591,311.419l-86.023-86.032c-3.2-3.2-8.866-3.2-12.066,0l-24.576,24.576c-3.336,3.336-3.336,8.729,0,12.066    l86.023,86.032c1.596,1.604,3.772,2.5,6.033,2.5s4.437-0.905,6.033-2.5l24.576-24.576    C289.928,320.148,289.928,314.755,286.591,311.419z M255.991,329.953l-73.957-73.957l12.51-12.51l73.957,73.957L255.991,329.953z" fill="#676a79"/>
	</g>
</g>
<g>
	<g>
		<path d="M348.039,249.963l-86.023-86.023c-3.2-3.2-8.866-3.2-12.066,0l-24.576,24.576c-3.336,3.336-3.336,8.729,0,12.066    l86.023,86.023c1.596,1.604,3.772,2.5,6.033,2.5c2.261,0,4.429-0.896,6.033-2.5l24.576-24.576    C351.375,258.692,351.375,253.299,348.039,249.963z M317.43,268.505l-73.957-73.957l12.518-12.51l73.949,73.957L317.43,268.505z" fill="#676a79"/>
	</g>
</g>
<g>
</g>
<g>
</g>
<g>
</g>
<g>
</g>
<g>
</g>
<g>
</g>
<g>
</g>
<g>
</g>
<g>
</g>
<g>
</g>
<g>
</g>
<g>
</g>
<g>
</g>
<g>
</g>
<g>
</g>
</svg>
